<!-- Generator: Adobe Illustrator 19.2.1, SVG Export Plug-In  -->
<svg version="1.1"
	 xmlns="http://www.w3.org/2000/svg" xmlns:xlink="http://www.w3.org/1999/xlink" xmlns:a="http://ns.adobe.com/AdobeSVGViewerExtensions/3.0/"
	 x="0px" y="0px" width="18.9px" height="18.6px" viewBox="0 0 18.9 18.6" enable-background="new 0 0 18.9 18.6"
	 xml:space="preserve">
<defs>
</defs>
<g>
	<polygon fill="#217D93" points="5.7,2.9 6.5,2.3 3.3,2.3 2,9.7 2.5,10.6 3.8,2.9 	"/>
	<polygon fill="#217D93" points="4.7,14.8 0.9,8.1 2.3,6.8 2.5,5.9 0,7.9 3.7,14.4 	"/>
	<polygon fill="#217D93" points="9.1,16.6 1.9,13.9 2.2,12.1 1.7,11.2 1.1,14.4 8.2,17 	"/>
	<polygon fill="#217D93" points="6.4,17.8 5.5,16.2 4.5,15.8 6.1,18.6 13.2,16.1 13.7,15.2 	"/>
	<polygon fill="#217D93" points="12.4,17.8 12.4,17.8 10.6,17.2 9.7,17.5 12.7,18.6 16.5,12.1 16.3,11.1 	"/>
	<polygon fill="#217D93" points="15.7,6.4 17,14 15.2,14.6 14.7,15.5 17.7,14.4 16.4,7 	"/>
	<polygon fill="#217D93" points="12.1,3.1 18,8.1 17.1,9.7 17.3,10.7 18.9,7.9 13.1,3.1 	"/>
	<polygon fill="#217D93" points="15,2.9 15.4,4.8 16.2,5.4 15.6,2.3 8.1,2.3 7.3,2.9 	"/>
	<polygon fill="#217D93" points="9.5,0.9 9.5,0.9 10.9,2.1 11.9,2.1 9.5,0 3.7,4.8 3.5,5.8 	"/>
	<g>
		<path fill="#217D93" d="M8.7,13.2L8.7,13.2c0,0,0-2,0-3.1C8.7,11.2,8.7,13.2,8.7,13.2z"/>
		<path opacity="0.84" fill="#217D93" enable-background="new    " d="M8.7,13.2L8.7,13.2c0,0,0-2,0-3.1C8.7,11.2,8.7,13.2,8.7,13.2
			z"/>
		<path opacity="0.84" fill="#217D93" enable-background="new    " d="M10.2,13.2c0,0,0-2,0-3.1C10.2,11.2,10.2,13.2,10.2,13.2
			L10.2,13.2z"/>
		<path fill="#217D93" d="M11.1,7c-0.4,0-0.7,0.1-1,0.2C9.8,7.3,9.6,7.4,9.5,7.6C9.3,7.4,9.1,7.3,8.9,7.2C8.6,7.1,8.2,7,7.9,7H4.7
			L5.6,13H7L6.4,8.4h1.4c0.3,0,0.5,0.1,0.6,0.3C8.6,8.8,8.7,9,8.7,9.3c0,0,0,0,0,0c0,0,0,0.3,0,0.7c0,1.1,0,3.1,0,3.1h1.5
			c0,0,0-2,0-3.1c0-0.4,0-0.7,0-0.7c0-0.4,0.1-0.5,0.2-0.7c0.1-0.2,0.3-0.3,0.6-0.3h1.4l-0.6,4.5h1.4L14.2,7H11.1z"/>
	</g>
</g>
</svg>
