<svg style="display: none;">
    <symbol viewBox="0 0 51.8 57.5" id="icon-calculator">
        <title>calculator</title>
        <g id="calculator-_x3C_Group_x3E__1_">
            <path fill="#F68820" d="M44,0c4.3,0,7.8,3.7,7.8,8.3v40.9c0,4.6-3.5,8.3-7.8,8.3H7.8c-4.3,0-7.8-3.7-7.8-8.3V8.3C0,3.7,3.5,0,7.8,0
		H44 M44,4.2H7.8C5.6,4.2,3.9,6,3.9,8.3v40.9c0,2.3,1.7,4.2,3.9,4.2H44c2.1,0,3.9-1.9,3.9-4.2V8.3C47.9,6,46.2,4.2,44,4.2L44,4.2z
		 M9.8,7.1c-1.9,0-2.9,1-2.9,2.5v9.9c0,1,0.4,2.1,2.3,2.1h33.7c1.8,0,2-1.1,2-1.8v-10c0-1.4-0.5-2.8-2.4-2.8H9.8z M9.8,23.6
		c-1.1,0-2.3-0.1-2.3,2.2v7.7c0,1.8,0.5,2.6,2.1,2.6h12.2c2.3,0,2.1-1.5,2.1-2.4v-7.8c0-1.9-0.6-2.4-2-2.4H9.8z M31.5,23.8
		c-1.1,0-2.3,0.2-2.3,2v21.3c0,2.4,0.5,2.6,2.1,2.6h12.8c1.2,0,1.4,0.1,1.4-1.7V26.6c0-2.4-0.6-2.9-2-2.9H31.5z M9.7,37.8
		c-1.1,0-2.3-0.1-2.3,2.2v7.7c0,1.8,0.5,2.6,2.1,2.6h12.2c2.3,0,2.1-1.5,2.1-2.4v-7.8c0-1.9-0.6-2.4-2-2.4H9.7z M32.7,11.8v3.6
		c0,0.8,0,1.4-0.1,1.8c-0.1,0.4-0.3,0.7-0.6,1c-0.3,0.3-0.6,0.6-1,0.7c-0.4,0.1-0.8,0.2-1.3,0.2c-0.6,0-1.2-0.1-1.6-0.2
		c-0.4-0.2-0.8-0.4-1-0.7c-0.2-0.3-0.4-0.6-0.5-1c-0.1-0.4-0.2-0.9-0.2-1.7v-3.8c0-1,0.1-1.7,0.3-2.2c0.2-0.5,0.5-0.9,1-1.2
		C28.1,8.1,28.7,8,29.4,8C30,8,30.6,8.1,31,8.3c0.5,0.2,0.8,0.5,1.1,0.8c0.2,0.3,0.4,0.6,0.5,1C32.6,10.4,32.7,11,32.7,11.8z
		 M31.2,10.8c0-0.6-0.1-1-0.3-1.2c-0.2-0.2-0.7-0.2-1.5-0.2c-0.8,0-1.3,0.1-1.5,0.2c-0.2,0.2-0.4,0.6-0.4,1.2v5.8
		c0,0.7,0.1,1.1,0.3,1.2c0.2,0.1,0.7,0.2,1.5,0.2c0.7,0,1.2-0.1,1.5-0.2c0.2-0.2,0.3-0.5,0.3-1.1V10.8z M42.1,11.8v3.6
		c0,0.8,0,1.4-0.1,1.8c-0.1,0.4-0.3,0.7-0.5,1c-0.3,0.3-0.6,0.6-1,0.7c-0.4,0.1-0.8,0.2-1.3,0.2c-0.6,0-1.2-0.1-1.6-0.2
		c-0.4-0.2-0.8-0.4-1-0.7c-0.3-0.3-0.4-0.6-0.5-1c-0.1-0.4-0.2-0.9-0.2-1.7v-3.8c0-1,0.1-1.7,0.3-2.2c0.2-0.5,0.5-0.9,1-1.2
		C37.5,8.1,38.1,8,38.8,8c0.6,0,1.1,0.1,1.6,0.3c0.5,0.2,0.8,0.5,1.1,0.8c0.2,0.3,0.4,0.6,0.5,1C42,10.4,42.1,11,42.1,11.8z
		 M40.6,10.8c0-0.6-0.1-1-0.3-1.2c-0.2-0.2-0.7-0.2-1.5-0.2c-0.7,0-1.2,0.1-1.5,0.2c-0.2,0.2-0.4,0.6-0.4,1.2v5.8
		c0,0.7,0.1,1.1,0.3,1.2c0.2,0.1,0.7,0.2,1.5,0.2c0.7,0,1.2-0.1,1.5-0.2c0.2-0.2,0.3-0.5,0.3-1.1V10.8z M20.5,31.1h-3.3v3.4h-2.9
		v-3.4H11v-2.9h3.4v-3.3h2.9v3.3h3.3V31.1z M19.8,46.9h-9.7v-3.7h9.7V46.9z M42.6,35.1h-9.7v-3.7h9.7V35.1z M42.7,41.2H33v-3.7h9.7
		V41.2z"/>
        </g>
    </symbol>
    <symbol viewBox="0 0 56.7 54.8" id="icon-calendar">
        <title>calendar</title>
        <g>
            <rect x="20.3" y="22.1" fill="#F68820" width="6.4" height="5.6"/>
            <rect x="9.8" y="22.1" fill="#F68820" width="6.4" height="5.6"/>
            <rect x="30.1" y="22.1" fill="#F68820" width="6.4" height="5.6"/>
            <rect x="40.2" y="22.1" fill="#F68820" width="6.4" height="5.6"/>
            <rect x="20.3" y="31" fill="#F68820" width="6.4" height="5.6"/>
            <rect x="30.1" y="31" fill="#F68820" width="6.4" height="5.6"/>
            <rect x="40.2" y="31" fill="#F68820" width="6.4" height="5.6"/>
            <rect x="20.3" y="40.2" fill="#F68820" width="6.4" height="5.6"/>
            <rect x="10.1" y="31" fill="#F68820" width="6.4" height="5.6"/>
            <rect x="10.2" y="40.2" fill="#F68820" width="6.4" height="5.6"/>
            <rect x="30.1" y="40.2" fill="#F68820" width="6.4" height="5.6"/>
            <rect x="40.2" y="40.2" fill="#F68820" width="6.4" height="5.6"/>
            <path fill="#F68820"
                  d="M56.7,4l-8,0V9H41V4L16.8,4v5.2H9.1V4L0,4v50.8h4.1h48.6l4,0L56.7,4z M52.7,50.7H4.1V18.3h48.6V50.7z"/>
            <rect x="10.6" fill="#F68820" width="4.8" height="7.9"/>
            <rect x="42.5" fill="#F68820" width="4.8" height="7.9"/>
        </g>
    </symbol>
    <symbol viewBox="0 0 12.2 21.5" id="icon-cellphone">
        <title>cellphone</title>
        <g>
            <path d="M11,17.4H1.2V2.6H11v12.2h1.2V1.6c0-0.9-0.7-1.6-1.6-1.6h-9C0.7,0,0,0.7,0,1.6v18.4c0,0.9,0.7,1.6,1.6,1.6
		h9c0.9,0,1.6-0.7,1.6-1.6V13H11V17.4z M9.6,1C9.8,1,10,1.2,10,1.4c0,0.2-0.2,0.4-0.4,0.4c-0.2,0-0.4-0.2-0.4-0.4
		C9.2,1.2,9.4,1,9.6,1z M4,1.1h4.2v0.5H4V1.1z M8,19.8H4.2v-1.2H8V19.8z"/>
        </g>
    </symbol>
    <symbol viewBox="0 0 92.8 94.7" id="icon-dust-pan">
        <title>dust-pan</title>
        <g>
            <g>
                <g>
                    <g>
                        <path fill="#F68820" d="M90.8,23.8c-1.3-1.6-7.9-3.1-13.4,4.5C72,35.9,65.2,44.2,65.2,44.2l-10.5-6.1L19.7,65.8l30.8,21.1
					l28.6-21.7V51.9l-7.2-4.5c0,0,9-6.8,10.9-7.6c1.9-0.8,9-5.8,9.8-9.2C93.4,27.3,92.1,25.4,90.8,23.8z M75.8,54.7l-25.3,27
					L28.6,66l25.2-12.1L66.4,61l1.8-2.2l-13.1-7.5L55,43.9L75.8,54.7z M90.6,29.9c-0.3,2-2.6,4.7-5.6,6.9c-2.5,1.8-8.9,5.3-10.5,7.1
					c0,0,7.4-7.5,9.7-8.6s5-5.5,4.3-6.6c-0.6-1-2.6-0.2-3.1-0.3c-0.6-0.1-3-0.4-2.8-1.4c0.2-1,1.6-1.4,2.4-1.5c0,0,2.2-0.3,3.4,0
					C89.5,25.7,90.9,27.9,90.6,29.9z"/>
                    </g>
                </g>
                <ellipse fill="#F68820" cx="8.5" cy="76.4" rx="8.2" ry="7.7"/>
                <ellipse fill="#F68820" cx="23.2" cy="83.2" rx="5.4" ry="5.1"/>
                <ellipse fill="#F68820" cx="15.6" cy="84.6" rx="4.9" ry="4.7"/>
                <ellipse fill="#F68820" cx="19.2" cy="75.5" rx="1.4" ry="0.9"/>
                <ellipse fill="#F68820" cx="19.9" cy="70.5" rx="3.3" ry="3.1"/>
                <ellipse fill="#F68820" cx="34.8" cy="90.2" rx="4.2" ry="4.3"/>
                <ellipse fill="#F68820" cx="28.4" cy="91.6" rx="2.3" ry="2.3"/>
                <ellipse fill="#F68820" cx="41.4" cy="91.6" rx="3.3" ry="3.1"/>
                <circle fill="#F68820" cx="30.7" cy="84.6" r="1.3"/>
            </g>
            <g>
                <path fill="#F68820" d="M37.3,26.9c0,0,3.8,4,2.8,6.6c-1,2.6-10.2,9.1-8.6,30.3c0,0-5.4,0.7-6.9-1.2c0,0,0.3-10.9,2.2-15
			c0,0-4.1,6.6-3.1,14.5c0,0-6.5-0.5-9.6-3.8l8.1-14l-9.6,13.4c0,0-6.2-4.3-7.2-5.6c0,0,10-9.4,10.6-13c0,0-8.5,11-12.3,11.4
			c0,0-3.6-3.9-3.6-5.1c0,0,11.9-6.7,14.1-11c2.2-4.4,9.5-15.3,14.1-12.7C32.9,24.2,37.3,26.9,37.3,26.9z"/>
                <g>
                    <g>
                        <path fill="#F68820" d="M47.7,1.1c-4.6-2.7-6.8,0.2-8.7,3.6c-1.8,3.5-9.9,16.2-9.9,16.2l8.5,5.3l11-18C48.6,8.2,51.8,3,47.7,1.1
					z M47.7,3.9c-0.4,0.5-1,0.2-1,0.2s-1.5-0.9-2.1-1c-0.6-0.1-1.6,0.2-2.2,1.2l-4.5,7.3l-3.4,6.4c0,0-0.8,1.2-1.5,0.7
					c-0.7-0.5,1.1-3.8,1.4-4.3c0.3-0.5,7.2-12.2,7.2-12.2s2.8-1.5,4.3-0.7C47.5,2.5,47.9,3.3,47.7,3.9z"/>
                    </g>
                </g>
            </g>
        </g>
    </symbol>
    <symbol viewBox="0 0 23.1 23.1" id="icon-facebook">
        <title>facebook</title>
        <g>
            <path d="M19.2,0H3.9C1.7,0,0,1.8,0,3.9v15.3c0,2.2,1.7,3.9,3.9,3.9h7.5v-9.4H8.9v-3.2h2.5c0,0,0-2.1,0-2.5
		c0-0.5-0.1-3.6,3.9-3.6c0.5,0,1.9,0,3,0c0,1.4,0,2.8,0,3.2c-0.8,0-1.8,0-2.2,0c-0.4,0-0.8,0.4-0.8,0.7c0,0.3,0,2.1,0,2.1
		s2.6,0,2.9,0c-0.1,1.6-0.4,3.2-0.4,3.2h-2.5v9.4h4c2.2,0,3.9-1.7,3.9-3.9V3.9C23.1,1.8,21.4,0,19.2,0z"/>
        </g>
    </symbol>
    <symbol viewBox="0 0 31.2 31.1" id="icon-googleplus">
        <title>googleplus</title>
        <path d="M31.2,24.3v-6.8h-1.9v2.5h-2.5v-2.5h-2.5V15h2.5v-2.5h2.5V15h1.9V6.8c0-3.8-3-6.8-6.8-6.8H6.8
	C3,0,0,3.1,0,6.8v17.5c0,3.8,3,6.8,6.8,6.8h17.6C28.1,31.1,31.2,28.1,31.2,24.3z M13.2,24.9c-4.8,0-8.6-3.9-8.6-8.6
	c0-4.8,3.9-8.6,8.6-8.6c2.3,0,4.3,0.9,5.8,2.3l-2.3,2.3c-0.6-0.6-1.8-1.3-3.4-1.3c-3,0-5.4,2.4-5.4,5.5c0,3,2.4,5.5,5.4,5.5
	c3.4,0,4.7-2.5,4.9-3.7h-4.9v-3h8.2c0.1,0.4,0.1,0.9,0.1,1.4C21.5,21.4,18.2,24.9,13.2,24.9z"/>
    </symbol>
    <symbol viewBox="0 0 90.7 90.7" id="icon-hand-clean-sparkle-round">
        <title>hand-clean-sparkle-round</title>
        <g>
            <circle fill="#FFFFFF" cx="45.3" cy="45.3" r="45.3"/>
            <g>
                <g>
                    <g>
                        <path fill="#F68820" d="M70.4,61.7C70,60.8,63.6,49,61.9,48.4c-1.7-0.6-16.9-3.4-19.4-3.6c-2.5-0.2-7.3-3.2-7.3-3.2l0.2-0.9
					l-9-9.5L11.1,47.9l8.7,8.5l0.6-0.2c0,0,3.1,2.8,3.6,5.9c0.6,3.1,2,4.6,2,4.6s-0.7,1.4-2.8,0.9C21,67.1,20,67.8,22,70.8
					c2,3,6.4,7.2,8.7,6.8c2.3-0.4,6.8-4.4,10.8-3.2c4.1,1.3,13.3,4.2,16,2.4c2.7-1.8,6.1-6.2,9.6-6c3.5,0.2,9.4-1.5,9.3-4.8
					C76.4,62.7,70.9,62.7,70.4,61.7z M62.6,60.7c-2.8,0.1-6-1.7-7.3-3.8c-1.3-2.1-7.6-0.2-10.7-0.2c-3.1,0-2.5,2.6-1.6,3.5
					c0.9,0.9,3,1.3,6.1,0.5c3.1-0.8,5.5,0.5,3.6,2.3c-1.9,1.8-4.9,3.6-8,2.9c-3.1-0.7-9,0.6-12.3,0.5c-3.3-0.2-6.2-6.6-6.8-8.5
					c-0.6-1.9-2-5-2-5l8.9-9c1.1,1.1,7.7,5.3,9,5.2c1.3-0.1,3.2,0.1,4.8,0.8c1.6,0.6,5.3,1.2,8.8,1.5c3.5,0.3,4.2,1.4,5.4,3.1
					c1.2,1.7,1.9,2.8,3.3,3.8C65.2,59.3,65.3,60.6,62.6,60.7z"/>
                    </g>
                </g>
            </g>
            <g>
                <path fill="#F68820" d="M50.6,20.2c-6.2,0-7.9,1.7-7.9,7.9c0-6.2-1.7-7.9-7.9-7.9c6.2,0,7.9-1.7,7.9-7.9
			C42.7,18.5,44.4,20.2,50.6,20.2z"/>
                <path fill="#F68820" d="M70.7,24.6c-7.4,0-11.9,4.5-11.9,11.9c0-7.4-4.5-11.9-11.9-11.9c7.4,0,11.9-4.5,11.9-11.9
			C58.8,20.1,63.3,24.6,70.7,24.6z"/>
                <path fill="#F68820" d="M56.7,38c-1.9,0-4.1,2.2-4.1,4.1c0-1.9-2.2-4.1-4.1-4.1c1.9,0,4.1-2.2,4.1-4.1C52.6,35.8,54.8,38,56.7,38z
			"/>
            </g>
        </g>
    </symbol>
    <symbol viewBox="0 0 65.4 59" id="icon-hand-clean-sparkle">
        <title>hand-clean-sparkle</title>
        <g>
            <g>
                <g>
                    <path d="M59.4,43.1c-0.5-0.9-6.9-12.7-8.5-13.3c-1.7-0.6-16.9-3.4-19.4-3.6c-2.5-0.2-7.3-3.2-7.3-3.2l0.2-0.9
				l-9-9.5L0,29.4l8.7,8.5l0.6-0.2c0,0,3.1,2.8,3.6,5.9c0.6,3.1,2,4.6,2,4.6s-0.7,1.4-2.8,0.9c-2.1-0.5-3.1,0.2-1.1,3.2
				c2,3,6.4,7.2,8.7,6.8c2.3-0.4,6.8-4.4,10.8-3.2c4.1,1.3,13.3,4.2,16,2.4c2.7-1.8,6.1-6.2,9.6-6c3.5,0.2,9.4-1.5,9.3-4.8
				C65.3,44.1,59.9,44.1,59.4,43.1z M51.5,42.1c-2.8,0.1-6-1.7-7.3-3.8c-1.3-2.1-7.6-0.2-10.7-0.2s-2.5,2.6-1.6,3.5
				c0.9,0.9,3,1.3,6.1,0.5c3.1-0.8,5.5,0.5,3.6,2.3c-1.9,1.8-4.9,3.6-8,2.9c-3.1-0.7-9,0.6-12.3,0.5c-3.3-0.2-6.2-6.6-6.8-8.5
				c-0.6-1.9-2-5-2-5l8.9-9c1.1,1.1,7.7,5.3,9,5.2c1.3-0.1,3.2,0.1,4.8,0.8c1.6,0.6,5.3,1.2,8.8,1.5c3.5,0.3,4.2,1.4,5.4,3.1
				c1.2,1.7,1.9,2.8,3.3,3.8C54.1,40.7,54.3,42,51.5,42.1z"/>
                </g>
            </g>
            <path d="M35.6,10.3c0,0,0.9,7.1-6.9,7.1c0,0,6.9,0.1,6.9,6.7c0,0-0.8-7.3,6.9-7.1C42.5,17.1,35.6,17.3,35.6,10.3z"/>
            <path d="M49.1,0c0,0,1.3,10.6-10.4,10.6c0,0,10.4,0.2,10.4,10.1c0,0-1.2-10.9,10.4-10.6C59.5,10.1,49.1,10.5,49.1,0
		z"/>
        </g>
    </symbol>
    <symbol viewBox="0 0 1096.4 292.4" id="icon-hero-banner">
        <title>hero-banner</title>
        <g>
            <polygon fill="#F68820" points="1052.6,177.8 45.9,177.8 5.2,61.2 1090,61.2 	"/>
            <path fill="#535253"
                  d="M384.5,36.4v256l163-27.6l164.7,27.6v-256c0,0-45.3-36.4-163.9-36.4C429.7,0,384.5,36.4,384.5,36.4z"/>
            <text transform="matrix(1 0 0 1 466.1047 207.6222)" fill="#F68820" font-family="&apos;Oswald-Medium&apos;"
                  font-size="29.8738px">Schedule a call
            </text>
            <g>
                <text transform="matrix(1 0 0 1 730.1835 130.4191)">
                    <tspan x="0" y="0" fill="#FFFFFF" font-family="&apos;Muli&apos;" font-size="15.3862px">Not sure what
                        your place will cost?
                    </tspan>
                    <tspan x="0" y="18.5" fill="#FFFFFF" font-family="&apos;Muli&apos;" font-size="15.3862px">Use our
                        guide to get a great idea.
                    </tspan>
                </text>
            </g>
            <g>
                <text transform="matrix(1 0 0 1 730.1835 107.3878)" fill="#FFFFFF"
                      font-family="&apos;Oswald-Medium&apos;" font-size="18px">pricing calculator
                </text>
            </g>
            <g>
                <text transform="matrix(1 0 0 1 110.5969 130.4191)">
                    <tspan x="0" y="0" fill="#FFFFFF" font-family="&apos;Muli-SemiBold&apos;" font-size="15.3862px">
                        Existing customers book your next
                    </tspan>
                    <tspan x="12.1" y="18.5" fill="#FFFFFF" font-family="&apos;Muli-SemiBold&apos;"
                           font-size="15.3862px">cleaning
                    </tspan>
                    <tspan x="79.1" y="18.5" fill="#FFFFFF" font-family="&apos;Muli-SemiBold&apos;"
                           font-size="15.3862px" text-decoration=" underline">
                        <a fill="#FFFFFF" href="/contact/">RIGHT HERE</a>
                    </tspan>
                    <tspan x="170.8" y="18.5" fill="#FFFFFF" font-family="&apos;Muli-SemiBold&apos;"
                           font-size="15.3862px">, right now.
                    </tspan>
                </text>
            </g>
            <g>
                <text transform="matrix(1 0 0 1 168.276 107.3878)" fill="#FFFFFF"
                      font-family="&apos;Oswald-Medium&apos;" font-size="18px">quick &amp; easy scheduling!
                </text>
            </g>
            <g>
                <circle fill="#6B6B6B" cx="1051.1" cy="120.8" r="45.3"/>
                <g id="hero-banner-_x3C_Group_x3E__1_">
                    <path fill="#FFFFFF" d="M1070.7,92.2c4.4,0,8,3.8,8,8.5v41.9c0,4.7-3.6,8.5-8,8.5h-37.2c-4.4,0-8-3.8-8-8.5v-41.9
				c0-4.7,3.6-8.5,8-8.5H1070.7 M1070.7,96.5h-37.2c-2.2,0-4,1.9-4,4.3v41.9c0,2.4,1.8,4.3,4,4.3h37.2c2.2,0,4-1.9,4-4.3v-41.9
				C1074.7,98.4,1072.9,96.5,1070.7,96.5L1070.7,96.5z M1035.6,99.5c-1.9,0-3,1-3,2.6v10.2c0,1,0.5,2.1,2.4,2.1h34.5
				c1.9,0,2.1-1.2,2.1-1.9v-10.2c0-1.5-0.6-2.8-2.5-2.8H1035.6z M1035.6,116.4c-1.1,0-2.4-0.1-2.4,2.2v7.9c0,1.8,0.5,2.7,2.1,2.7
				h12.5c2.3,0,2.1-1.5,2.1-2.4v-8c0-1.9-0.6-2.4-2-2.4H1035.6z M1057.9,116.6c-1.1,0-2.4,0.2-2.4,2.1v21.9c0,2.5,0.5,2.7,2.1,2.7
				h13.1c1.2,0,1.5,0.1,1.5-1.8v-22c0-2.4-0.6-2.9-2-2.9H1057.9z M1035.4,131c-1.1,0-2.4-0.1-2.4,2.2v7.9c0,1.8,0.5,2.7,2.1,2.7
				h12.5c2.3,0,2.1-1.5,2.1-2.4v-8c0-1.9-0.6-2.4-2-2.4H1035.4z M1059.1,104.4v3.7c0,0.8,0,1.5-0.1,1.8c-0.1,0.4-0.3,0.7-0.6,1.1
				c-0.3,0.3-0.6,0.6-1.1,0.7c-0.4,0.1-0.9,0.2-1.4,0.2c-0.7,0-1.2-0.1-1.7-0.2c-0.4-0.2-0.8-0.4-1.1-0.7c-0.3-0.3-0.4-0.7-0.6-1
				c-0.1-0.4-0.2-0.9-0.2-1.7v-3.9c0-1,0.1-1.8,0.3-2.3c0.2-0.5,0.5-0.9,1.1-1.2c0.5-0.3,1.2-0.5,1.9-0.5c0.6,0,1.2,0.1,1.6,0.3
				c0.5,0.2,0.8,0.5,1.1,0.8c0.2,0.3,0.4,0.7,0.5,1C1059,102.9,1059.1,103.5,1059.1,104.4z M1057.6,103.3c0-0.6-0.1-1-0.3-1.2
				c-0.2-0.2-0.7-0.2-1.5-0.2c-0.8,0-1.3,0.1-1.5,0.3c-0.2,0.2-0.4,0.6-0.4,1.2v5.9c0,0.7,0.1,1.1,0.3,1.3c0.2,0.2,0.7,0.2,1.5,0.2
				c0.8,0,1.3-0.1,1.5-0.3c0.2-0.2,0.3-0.6,0.3-1.1V103.3z M1068.7,104.4v3.7c0,0.8,0,1.5-0.1,1.8c-0.1,0.4-0.3,0.7-0.6,1.1
				c-0.3,0.3-0.6,0.6-1,0.7c-0.4,0.1-0.9,0.2-1.4,0.2c-0.7,0-1.2-0.1-1.7-0.2c-0.4-0.2-0.8-0.4-1.1-0.7c-0.3-0.3-0.4-0.7-0.6-1
				c-0.1-0.4-0.2-0.9-0.2-1.7v-3.9c0-1,0.1-1.8,0.3-2.3c0.2-0.5,0.5-0.9,1-1.2c0.5-0.3,1.2-0.5,1.9-0.5c0.6,0,1.2,0.1,1.6,0.3
				c0.5,0.2,0.8,0.5,1.1,0.8c0.2,0.3,0.4,0.7,0.5,1C1068.6,102.9,1068.7,103.5,1068.7,104.4z M1067.2,103.3c0-0.6-0.1-1-0.3-1.2
				c-0.2-0.2-0.7-0.2-1.5-0.2c-0.8,0-1.3,0.1-1.5,0.3c-0.2,0.2-0.4,0.6-0.4,1.2v5.9c0,0.7,0.1,1.1,0.3,1.3c0.2,0.2,0.7,0.2,1.5,0.2
				c0.8,0,1.3-0.1,1.5-0.3c0.2-0.2,0.4-0.6,0.4-1.1V103.3z M1046.6,124.1h-3.4v3.5h-3v-3.5h-3.4v-3h3.4v-3.4h3v3.4h3.4V124.1z
				 M1045.9,140.3h-10v-3.8h10V140.3z M1069.3,128.2h-10v-3.8h10V128.2z M1069.3,134.5h-10v-3.8h10V134.5z"/>
                </g>
            </g>
            <g>
                <circle fill="#6B6B6B" cx="45.3" cy="120.8" r="45.3"/>
                <g>
                    <rect x="37.3" y="115.5" fill="#FFFFFF" width="6.4" height="5.6"/>
                    <rect x="26.8" y="115.5" fill="#FFFFFF" width="6.4" height="5.6"/>
                    <rect x="47.1" y="115.5" fill="#FFFFFF" width="6.4" height="5.6"/>
                    <rect x="57.2" y="115.5" fill="#FFFFFF" width="6.4" height="5.6"/>
                    <rect x="37.3" y="124.3" fill="#FFFFFF" width="6.4" height="5.6"/>
                    <rect x="47.1" y="124.3" fill="#FFFFFF" width="6.4" height="5.6"/>
                    <rect x="57.2" y="124.3" fill="#FFFFFF" width="6.4" height="5.6"/>
                    <rect x="37.3" y="133.6" fill="#FFFFFF" width="6.4" height="5.6"/>
                    <rect x="27.1" y="124.3" fill="#FFFFFF" width="6.4" height="5.6"/>
                    <rect x="27.1" y="133.6" fill="#FFFFFF" width="6.4" height="5.6"/>
                    <rect x="47.1" y="133.6" fill="#FFFFFF" width="6.4" height="5.6"/>
                    <rect x="57.2" y="133.6" fill="#FFFFFF" width="6.4" height="5.6"/>
                    <path fill="#FFFFFF" d="M73.7,97.3l-8,0v5.1H58v-5.1l-24.3,0v5.2h-7.6v-5.2l-9.1,0v50.8H21h48.6l4,0L73.7,97.3z M69.7,144.1H21
				v-32.4h48.6V144.1z"/>
                    <rect x="27.6" y="93.4" fill="#FFFFFF" width="4.8" height="7.9"/>
                    <rect x="59.4" y="93.4" fill="#FFFFFF" width="4.8" height="7.9"/>
                </g>
            </g>
            <path fill="none" stroke="#F68820" stroke-width="2.9895" stroke-miterlimit="10" d="M548.2,10c-87,0-152.9,33.7-152.9,33.7v234.7
		l151.9-24.2l154.1,24.2V41.5C701.3,41.5,635.2,10,548.2,10z"/>
            <g>
                <path fill="#FFFFFF" d="M448.7,212.5h-22.1v-33.1h22.1v6.7l2.6,0v-9.1c0-1.9-1.6-3.5-3.5-3.5h-20.3c-1.9,0-3.5,1.6-3.5,3.5v41.2
			c0,1.9,1.6,3.5,3.5,3.5h20.3c1.9,0,3.5-1.6,3.5-3.5v-10.2l-2.6,0V212.5z M445.5,175.6c0.5,0,0.9,0.4,0.9,0.9
			c0,0.5-0.4,0.9-0.9,0.9c-0.5,0-0.9-0.4-0.9-0.9C444.6,176,445,175.6,445.5,175.6z M433,175.9h9.4v1H433V175.9z M442,217.9h-8.6
			v-2.6h8.6V217.9z"/>
                <g>
                    <path fill="#FFFFFF" d="M447.9,198.7c0.8,0.2,1.6-0.3,1.9-1.1l4-8.1l-6.5,6c0,0-0.6,0.5-0.7,1.1
				C446.4,197.6,447,198.5,447.9,198.7z"/>
                    <path fill="#FFFFFF"
                          d="M453.4,188.9c-1.3-0.9-2.9-1.6-4.6-1.8v1.7c1.2,0.2,2.4,0.6,3.4,1.2L453.4,188.9z"/>
                    <path fill="#FFFFFF" d="M454.4,189.7l-0.8,1.6c1.4,1.5,2.3,3.5,2.3,5.7c0,4.5-3.7,8.2-8.2,8.2c-4.5,0-8.2-3.7-8.2-8.2
				c0-4.3,3.3-7.8,7.5-8.2v-1.7c-5.1,0.4-9.1,4.6-9.1,9.8c0,5.5,4.4,9.9,9.9,9.9c5.5,0,9.9-4.4,9.9-9.9
				C457.6,194.1,456.3,191.5,454.4,189.7z"/>
                </g>
            </g>
            <g>
                <g>
                    <path fill="#FFFFFF" d="M444.4,88.6c-0.8-0.9-1.6-1.8-2.3-2.6c2.6-1.3,4.9-2.6,6.7-4.1c1.8-1.4,3.3-2.9,4.4-4.3
				c0.4-0.1,0.7-0.2,1.1-0.3c2.3-0.1,4.5-0.1,6.8-0.1c0.1,13.2,0.3,26.4,0.4,39.6c-3.5,0-6.9,0-10.4,0c-0.1-10.3-0.1-20.6-0.2-30.9
				C448.6,86.8,446.5,87.7,444.4,88.6z"/>
                    <path fill="#FFFFFF" d="M468.3,106.7c3.5-0.2,7-0.4,10.5-0.6c0,0.8,0,1.7,0,2.5c0,1.8,1.4,2.7,4.2,2.6c0.4,0,0.8,0,1.2,0
				c3.1-0.1,4.7-1.1,4.7-2.9c0-3.7-0.1-7.3-0.1-11c0-2.1-1.5-3-4.4-2.7c-5.3,0.5-10.6,1.1-15.8,1.8c-0.1-7.6-0.2-15.3-0.3-22.9
				c9.8-2.6,19.6-4.7,29.6-6.3c0,2.1,0,4.1,0.1,6.2c-6.6,0.9-13.2,2.1-19.8,3.4c0.1,4.3,0.1,8.6,0.2,12.9c2.8-0.4,5.5-0.7,8.3-1.1
				c8.4-1,12.6,1.6,12.7,7.5c0,4,0.1,8,0.1,12.1c0.1,5.9-4.1,8.9-12.5,8.9c-2,0-3.9,0-5.9,0c-8.4,0-12.6-2.5-12.7-7.4
				C468.4,108.5,468.3,107.6,468.3,106.7z"/>
                    <path fill="#FFFFFF" d="M513.6,89.9c-0.9,0.1-1.8,0.1-2.7,0.2c-4.4,0.3-6.7-1.1-6.7-4.2c-0.1-4.8-0.1-9.6-0.2-14.4
				c0-3.1,2.2-4.9,6.6-5.5c0.9-0.1,1.8-0.2,2.7-0.3c4.5-0.5,6.7,0.9,6.7,4.1c0,5,0.1,10,0.1,15C520.2,87.9,518,89.6,513.6,89.9z
				 M512.6,69.2c-0.4,0-0.8,0.1-1.3,0.1c-1.2,0.1-1.9,0.8-1.8,2c0,4.6,0.1,9.1,0.1,13.7c0,1.2,0.6,1.7,1.9,1.6
				c0.4,0,0.8-0.1,1.3-0.1c1.3-0.1,1.9-0.7,1.9-1.9c0-4.6-0.1-9.2-0.1-13.9C514.6,69.6,513.9,69.1,512.6,69.2z M539.1,63.9
				c-6.4,15.8-12.8,31.6-19.1,47c-1.7,0-3.4,0-5.1,0.1c6.3-15.2,12.6-31,19-46.9C535.7,64,537.4,63.9,539.1,63.9z M543.1,110.7
				c-0.9,0-1.8,0-2.7,0c-4.4,0-6.6-1.6-6.7-4.9c0-5.1,0-10.1-0.1-15.2c0-3.2,2.2-4.9,6.7-5c0.9,0,1.8,0,2.7,0c4.5,0,6.7,1.6,6.7,4.9
				c0,5.1,0,10.2,0,15.3C549.7,109.1,547.5,110.7,543.1,110.7z M542.3,89.2c-0.4,0-0.8,0-1.3,0c-1.2,0-1.9,0.6-1.9,1.9
				c0,4.8,0,9.5,0,14.3c0,1.2,0.6,1.8,1.9,1.8c0.4,0,0.8,0,1.3,0c1.3,0,1.9-0.6,1.9-1.8c0-4.8,0-9.5,0-14.3
				C544.3,89.8,543.6,89.2,542.3,89.2z"/>
                    <path fill="#FFFFFF" d="M568.3,116.8c-8.5,0-12.7-3-12.7-9.1c0-11.8,0.1-23.6,0.1-35.4c0-6.1,4.3-9.2,12.8-8.6
				c3.4,0.2,6.8,0.5,10.2,0.8c8.5,0.9,12.7,4.5,12.6,10.2c-0.1,11.2-0.2,22.3-0.4,33.5c-0.1,5.7-4.3,8.6-12.8,8.6
				C574.9,116.8,571.6,116.8,568.3,116.8z M570.9,110.4c1.8,0,3.6,0,5.4,0.1c2.8,0,4.2-1,4.2-3c0.1-11.1,0.2-22.3,0.3-33.4
				c0-2-1.6-3.2-4.7-3.5c-1.7-0.1-3.3-0.3-5-0.4c-3.1-0.2-4.7,0.8-4.7,2.8c-0.1,11.4-0.1,22.8-0.2,34.2
				C566.2,109.3,567.7,110.4,570.9,110.4z"/>
                    <path fill="#FFFFFF" d="M622,91c0,1.8,0,3.6-0.1,5.4c-4.6-0.5-9.2-1-13.8-1.4c-0.1,7.3-0.2,14.5-0.3,21.8c-3.5,0-7,0-10.5,0
				c0.2-16.6,0.4-33.2,0.6-49.9c8.7,1.4,17.4,3.2,26,5.4c0,1.8,0,3.6-0.1,5.4c-5.1-1.1-10.3-2.1-15.5-3c-0.1,4.9-0.1,9.7-0.2,14.6
				C612.8,89.8,617.4,90.3,622,91z"/>
                    <path fill="#FFFFFF" d="M652.1,96.1c0,1.5,0,2.9,0,4.4c-4.5-0.7-9.1-1.4-13.6-2c-0.1,6.1-0.1,12.2-0.2,18.4c-3.5,0-7,0-10.5,0
				c0.2-14.5,0.3-28.9,0.5-43.4c8.6,2.3,17.1,4.9,25.5,8c0,1.4,0,2.9,0,4.3c-5-1.6-10.1-3.1-15.2-4.4c0,4.1-0.1,8.2-0.1,12.3
				C643,94.4,647.6,95.2,652.1,96.1z"/>
                </g>
                <g>
                    <path fill="#FFFFFF" d="M454.6,56.8c0-3,0-6.1,0-9.1c2-0.6,4.1-1.3,6.1-1.9c0,6.3,0,12.6,0,18.9c-2.1,0.6-4.1,1.2-6.1,1.9
				c0-1.3,0-2.5,0-3.8c-2.2-2.2-4.4-4.4-6.6-6.5c0,4.1,0,8.3,0,12.4c-2,0.7-4.1,1.4-6.1,2.1c0-6.3,0-12.6,0-18.9
				c2-0.7,4-1.4,6.1-2.1C450.2,52.1,452.4,54.4,454.6,56.8z"/>
                    <path fill="#FFFFFF" d="M464.9,63.5c0-6.3,0-12.6,0-18.9c5.1-1.4,10.2-2.7,15.4-3.8c0,0.8,0,1.5,0,2.3c-3.1,0.7-6.1,1.4-9.2,2.2
				c0,1.9,0,3.8,0,5.7c2.7-0.7,5.4-1.3,8.2-2c0,0.8,0,1.5,0,2.3c-2.7,0.6-5.4,1.3-8.2,2c0,2.1,0,4.2,0,6.3c3.1-0.8,6.1-1.5,9.2-2.2
				c0,0.8,0,1.5,0,2.3C475.2,60.8,470,62.1,464.9,63.5z"/>
                    <path fill="#FFFFFF" d="M516.1,35c-2.3,6.6-4.7,13.1-7,19.7c-2.3,0.3-4.6,0.6-6.8,0.9c-1.3-3.5-2.6-6.9-3.9-10.4
				c-1.3,3.9-2.5,7.7-3.8,11.6c-2.3,0.4-4.5,0.8-6.8,1.3c-2.3-5.9-4.6-11.7-6.9-17.5c2.1-0.5,4.1-0.9,6.2-1.3
				c1.5,4.4,3,8.9,4.4,13.3c1.5-5,3-10,4.4-15c1.6-0.3,3.3-0.5,4.9-0.8c1.5,4.5,3,9,4.5,13.5c1.5-4.9,3-9.9,4.5-14.8
				C511.9,35.4,514,35.2,516.1,35z"/>
                    <path fill="#FFFFFF" d="M546,47.8c0,0.4,0,0.8,0,1.2c0,2.2-2.5,3.2-7.6,3.4c-1.4,0-2.7,0.1-4.1,0.2c-5.1,0.2-7.6-0.6-7.6-2.8
				c0-4.2,0-8.3,0-12.5c0-2.1,2.5-3.4,7.6-3.6c1.4-0.1,2.7-0.1,4.1-0.2c5.1-0.2,7.6,0.9,7.6,3.1c0,0.7,0,1.4,0,2.1
				c-2.1,0-4.2,0.1-6.4,0.1c0-0.7,0-1.3,0-2c0-0.7-0.9-1.1-2.8-1c-0.4,0-0.8,0-1.3,0c-1.7,0.1-2.5,0.5-2.5,1.2c0,4,0,8.1,0,12.1
				c0,0.7,0.8,1.1,2.5,1c0.5,0,1.1,0,1.6-0.1c1.7-0.1,2.5-0.4,2.5-1.2c0-0.3,0-0.7,0-1C541.7,47.9,543.8,47.8,546,47.8z"/>
                    <path fill="#FFFFFF" d="M564.3,52.6c-5-0.3-10.1-0.4-15.1-0.4c0-6.3,0-12.6,0-18.9c2.1,0,4.2,0,6.4,0.1c0,5.5,0,11.1,0,16.6
				c2.9,0.1,5.8,0.2,8.7,0.3C564.3,51.1,564.3,51.9,564.3,52.6z"/>
                    <path fill="#FFFFFF" d="M566.3,52.8c0-6.3,0-12.6,0-18.9c2.1,0.1,4.2,0.3,6.3,0.4c0,6.3,0,12.6,0,18.9
				C570.6,53,568.4,52.9,566.3,52.8z"/>
                    <path fill="#FFFFFF" d="M577,53.5c0-6.3,0-12.6,0-18.9c5.2,0.5,10.5,1.1,15.7,1.8c0,0.8,0,1.5,0,2.3c-3.1-0.4-6.2-0.8-9.3-1.2
				c0,1.9,0,3.8,0,5.7c2.8,0.3,5.5,0.7,8.3,1c0,0.8,0,1.5,0,2.3c-2.8-0.4-5.5-0.7-8.3-1c0,2.1,0,4.2,0,6.3c3.1,0.4,6.2,0.7,9.3,1.2
				c0,0.8,0,1.5,0,2.3C587.4,54.6,582.2,54,577,53.5z"/>
                    <path fill="#FFFFFF" d="M608.5,48.3c0-3,0-6.1,0-9.1c2.1,0.4,4.2,0.8,6.3,1.3c0,6.3,0,12.6,0,18.9c-2.1-0.5-4.2-0.9-6.3-1.3
				c0-1.3,0-2.5,0-3.8c-2.2-3.3-4.5-6.6-6.7-9.9c0,4.1,0,8.3,0,12.4c-2.1-0.4-4.2-0.7-6.3-1c0-6.3,0-12.6,0-18.9
				c2.1,0.3,4.2,0.7,6.3,1C604.1,41.3,606.3,44.8,608.5,48.3z"/>
                    <path fill="#FFFFFF" d="M628.9,46.1c0,5.5,0,11.1,0,16.6c-2.1-0.5-4.1-1.1-6.2-1.6c0-5.5,0-11.1,0-16.6c-2-0.5-4-0.9-6-1.4
				c0-0.8,0-1.5,0-2.3c6.1,1.4,12.1,2.9,18.1,4.6c0,0.8,0,1.5,0,2.3C632.9,47.2,630.9,46.7,628.9,46.1z"/>
                    <path fill="#FFFFFF" d="M648.5,54.8c0-0.6,0-1.1,0-1.7c0-0.8-0.9-1.4-2.7-2c-0.3-0.1-0.6-0.2-1-0.3c-1.7-0.6-2.6-0.5-2.6,0.3
				c0,1,0,2.1,0,3.1c0,0.4,0.2,0.6,0.5,0.9c0.3,0.2,0.9,0.6,1.7,1c1.9,1.1,3.9,2.1,5.8,3.2c1.3,0.7,2.2,1.3,2.7,1.6
				c0.5,0.4,0.9,0.7,1.2,1c0.3,0.3,0.4,0.8,0.4,1.5c0,1.3,0,2.7,0,4c0,2.1-2.4,2.3-7.4,0.6c-1.3-0.4-2.5-0.8-3.8-1.2
				c-4.9-1.5-7.4-3.4-7.4-5.7c0-0.3,0-0.6,0-0.9c2.1,0.6,4.1,1.2,6.1,1.9c0,0.3,0,0.7,0,1c0,0.7,0.9,1.4,2.7,2
				c0.4,0.1,0.7,0.2,1.1,0.4c1.6,0.5,2.4,0.4,2.4-0.3c0-1.1,0-2.1,0-3.2c0-0.4-0.2-0.6-0.5-0.9c-0.3-0.2-0.9-0.6-1.7-1
				c-1.9-1.1-3.9-2.1-5.8-3.2c-1.3-0.7-2.2-1.2-2.8-1.6c-0.6-0.4-1-0.7-1.3-1.1c-0.3-0.4-0.4-0.8-0.4-1.3c0-1.3,0-2.6,0-3.9
				c0-2.2,2.5-2.5,7.4-1c1.3,0.4,2.5,0.8,3.8,1.2c4.9,1.6,7.3,3.6,7.3,5.8c0,0.6,0,1.2,0,1.8C652.6,56.2,650.5,55.5,648.5,54.8z"/>
                </g>
            </g>
            <text transform="matrix(1 0 0 1 409.8004 240.4376)" fill="#FFFFFF" font-family="&apos;Muli-SemiBold&apos;"
                  font-size="15.3862px">Just 15 minutes to discuss the details
            </text>
            <text transform="matrix(1 0 0 1 444.9038 140.2277)">
                <tspan x="0" y="0" fill="#FFFFFF" font-family="&apos;Muli-SemiBold&apos;" font-size="15.3862px">When you
                    purchase 4 hours
                </tspan>
                <tspan x="15.2" y="18.5" fill="#FFFFFF" font-family="&apos;Muli-SemiBold&apos;" font-size="15.3862px">or
                    more of our services!
                </tspan>
            </text>
        </g>
    </symbol>
    <symbol viewBox="0 0 283 160.2" id="icon-logo-mop-swipe">
        <title>logo-mop-swipe</title>
        <polygon opacity="0.15" fill="#535253" points="22.4,9.2 29.8,19.9 35.3,9.7 39.4,2.9 43.9,4.6 50.6,2.6 52.4,1 54.6,1 60.7,2.5
	65.6,0.1 78.7,0 88.4,1.1 102.5,3.4 109.8,4.9 118.9,9.4 283,160.2 147.9,159.5 35.5,159.5 0.4,111.3 0,109.9 0,101.6 4.5,101
	0,94.1 0,44.7 10,40.6 15.4,43.3 26.4,34.6 20.1,30.6 20.9,28 "/>
        <g>
            <g>
                <path fill="#FFFFFF" d="M0.1,45c2.6-1.3,5.1-2.5,7.8-3.7c3.5-1.5,5.3,0.9,5.3,7.3c0.1,5.5,0.1,10.9,0.2,16.4
			c0.1,6.3-1.7,9.7-5.2,10.2c-1.2,0.2-2.4,0.4-3.7,0.6c0,6.2,0.1,12.4,0.1,18.6c-1.5,0-3,0-4.5,0C0.1,78,0.1,61.5,0.1,45z M4.5,69.5
			c0.9-0.2,1.9-0.4,2.8-0.6C8.4,68.7,9,67.5,9,65.5c0-5-0.1-9.9-0.1-14.9c0-2.1-0.7-2.9-2-2.4c-0.8,0.3-1.7,0.7-2.5,1
			C4.4,56,4.5,62.8,4.5,69.5z"/>
                <path fill="#FFFFFF" d="M16,94.4c-0.2-18.7-0.4-37.4-0.6-56.2c3.6-1.4,7.3-2.6,10.9-3.7c0,2.4,0.1,4.8,0.1,7.2
			c-2.2,0.6-4.4,1.2-6.6,1.8c0.1,5.8,0.1,11.7,0.2,17.5c1.9-0.4,3.9-0.7,5.8-1.1c0,2.4,0.1,4.8,0.1,7.2c-2,0.3-3.9,0.6-5.8,0.9
			c0.1,6.4,0.2,12.8,0.2,19.2c2.2-0.1,4.4-0.2,6.6-0.3c0,2.4,0.1,4.8,0.1,7.2C23.4,94.4,19.7,94.4,16,94.4z"/>
                <path fill="#FFFFFF" d="M28.4,34c2.9-0.8,5.9-1.5,8.8-2.2c3.5-0.8,5.2,2.6,5.3,9.9c0.1,5.2,0.1,10.5,0.2,15.7
			c0.1,5.6-0.8,9.2-2.6,10.8c1.1,8.7,2.3,17.4,3.4,26.3c-1.4,0-2.8,0-4.2,0c-1.1-8.5-2.2-16.8-3.2-25.1c-0.9,0.1-1.8,0.2-2.7,0.3
			c0.1,8.3,0.2,16.6,0.3,24.9c-1.5,0-3,0-4.5,0C28.9,74.3,28.7,54.1,28.4,34z M33.3,62.5c1-0.1,2-0.2,2.9-0.4c1.3-0.2,2-1.7,2-4.8
			c-0.1-4.5-0.1-9-0.2-13.5c0-3-0.7-4.4-2.1-4.2c-1,0.2-2,0.4-3,0.6C33.1,47.7,33.2,55.1,33.3,62.5z"/>
                <path fill="#FFFFFF" d="M55.7,56.8c0,2.6,0,5.3,0,7.9c-2,0.1-4,0.2-5.9,0.3c0.1,9.8,0.2,19.6,0.2,29.4c-1.5,0-3,0-4.5,0
			c-0.2-21.4-0.4-42.7-0.6-64.1c3.8-0.6,7.5-1.1,11.3-1.4c0,2.6,0,5.3,0,7.9c-2.3,0.2-4.5,0.4-6.8,0.6c0.1,6.6,0.1,13.1,0.2,19.7
			C51.8,57,53.8,56.9,55.7,56.8z"/>
                <path fill="#FFFFFF" d="M58.6,94.4c-0.1-21.9-0.2-43.8-0.3-65.6c3.8-0.3,7.6-0.4,11.4-0.4c0,2.7,0,5.3,0,8c-2.3,0-4.5,0-6.8,0.1
			c0,6.7,0,13.3,0.1,20c2,0,4-0.1,6-0.1c0,2.7,0,5.3,0,8c-2,0-4,0-5.9,0.1c0,7.3,0,14.6,0.1,21.9c2.2,0,4.4,0,6.6,0c0,2.7,0,5.3,0,8
			C66,94.4,62.3,94.4,58.6,94.4z"/>
                <path fill="#FFFFFF" d="M85.2,79.2c0,1.4,0,2.8,0,4.2c0,7.4-1.9,11.1-5.4,11.1c-1,0-1.9,0-2.9,0c-3.6,0-5.3-3.7-5.3-11.2
			c0-14.5,0-29.1,0-43.6c0-7.5,1.8-11.2,5.5-11.1c1,0,2,0.1,3,0.2c3.7,0.3,5.5,4.2,5.4,11.6c0,2.5,0,4.9,0,7.4
			c-1.5-0.1-3-0.2-4.6-0.3c0-2.3,0-4.5,0-6.8c0-2.6-0.7-3.9-2-4c-0.3,0-0.6,0-0.9,0c-1.2-0.1-1.8,1.2-1.8,3.8
			c0,14.1-0.1,28.2-0.1,42.2c0,2.6,0.6,3.9,1.8,3.9c0.4,0,0.7,0,1.1,0c1.2,0,1.8-1.3,1.8-3.8c0-1.2,0-2.4,0-3.6
			C82.2,79.1,83.7,79.1,85.2,79.2z"/>
                <path fill="#FFFFFF" d="M95.1,38.3c-0.2,18.7-0.4,37.4-0.6,56.2c-1.5,0-3,0-4.5,0c0.2-18.9,0.3-37.9,0.5-56.8
			c-1.5-0.2-2.9-0.3-4.4-0.5c0-2.6,0-5.3,0.1-7.9c4.5,0.5,8.9,1.2,13.3,2c0,2.6-0.1,5.1-0.1,7.7C98,38.7,96.5,38.5,95.1,38.3z"/>
                <path fill="#FFFFFF" d="M100.2,94.4c0.2-20.9,0.5-41.9,0.7-62.8c1.5,0.3,3,0.7,4.5,1c-0.3,20.6-0.5,41.2-0.8,61.8
			C103.2,94.4,101.7,94.4,100.2,94.4z"/>
                <path fill="#FFFFFF" d="M112.9,94.4c-3.6,0-5.4-3.4-5.3-10.4c0.2-13.4,0.3-26.8,0.5-40.3c0.1-7,1.9-10,5.5-9
			c1.4,0.4,2.8,0.9,4.2,1.3c3.5,1.2,5.2,5.1,5.2,11.5c-0.1,12.4-0.3,24.8-0.4,37.1c-0.1,6.4-1.9,9.6-5.5,9.6
			C115.7,94.4,114.3,94.4,112.9,94.4z M114,87.2c0.8,0,1.5,0.1,2.3,0.1c1.2,0,1.8-1.1,1.8-3.3c0.2-12.4,0.3-24.8,0.5-37.1
			c0-2.3-0.6-3.6-1.9-4c-0.7-0.2-1.4-0.4-2.1-0.6c-1.3-0.4-2,0.6-2,3c-0.2,12.8-0.3,25.6-0.5,38.3C112,86,112.7,87.2,114,87.2z"/>
                <path fill="#FFFFFF" d="M134.6,67.8c0-8.3,0.1-16.6,0.1-24.9c1.4,0.7,2.8,1.4,4.2,2.1c0,16.5,0,32.9,0,49.4c-1.5,0-3,0-4.5,0
			c0-3.4,0-6.8,0-10.2c-1.5-8-3.1-16.2-4.6-24.8c-0.1,11.7-0.2,23.4-0.3,35.1c-1.5,0-3,0-4.5,0c0.2-18.4,0.4-36.9,0.6-55.3
			c1.5,0.6,2.9,1.2,4.3,1.8C131.6,50.2,133.1,59.2,134.6,67.8z"/>
            </g>
            <g>
                <path fill="#FFFFFF" d="M4.8,109.5v0.7c0,1.3-0.6,2-1.9,2H2c-1.2,0-1.9-0.7-1.9-2v-7.7c0-1.3,0.6-2,1.9-2h1c1.2,0,1.9,0.7,1.9,2
			v1.3H3.3v-1.2c0-0.4-0.2-0.7-0.7-0.7H2.3c-0.4,0-0.6,0.2-0.6,0.7v7.5c0,0.5,0.2,0.7,0.6,0.7h0.4c0.4,0,0.6-0.2,0.6-0.7v-0.6H4.8z"/>
                <path fill="#FFFFFF" d="M13,112.2H9.3v-11.6h1.6v10.2H13V112.2z"/>
                <path fill="#FFFFFF" d="M17.1,112.2v-11.6H21v1.4h-2.3v3.5h2v1.4h-2v3.9H21v1.4H17.1z"/>
                <path fill="#FFFFFF" d="M26.8,112.2h-1.6v-9.6c0-1.3,0.6-2,1.9-2h1.2c1.2,0,1.9,0.7,1.9,2v9.6h-1.6v-4.3h-1.8V112.2z M28.6,106.5
			v-3.9c0-0.4-0.2-0.7-0.7-0.7h-0.4c-0.5,0-0.7,0.2-0.7,0.7v3.9H28.6z"/>
                <path fill="#FFFFFF" d="M38,106.2v-5.6h1.6v11.6H38v-2.3l-1.7-5.3v7.6h-1.6v-11.6h1.6L38,106.2z"/>
                <path fill="#FFFFFF" d="M44.2,112.2v-11.6h1.6v11.6H44.2z"/>
                <path fill="#FFFFFF" d="M53.7,106.2v-5.6h1.6v11.6h-1.6v-2.3l-1.7-5.3v7.6h-1.6v-11.6H52L53.7,106.2z"/>
                <path fill="#FFFFFF" d="M62.3,107.9v-1.4h2.4v5.7h-3c-1.2,0-1.8-0.7-1.8-2v-7.7c0-1.3,0.6-2,1.8-2h1.1c1.3,0,2,0.7,2,2v1.3h-1.6
			v-1c0-0.6-0.2-0.8-0.7-0.8h-0.4c-0.5,0-0.7,0.3-0.7,0.8v7.1c0,0.6,0.2,0.8,0.7,0.8h1.1v-2.8H62.3z"/>
                <path fill="#FFFFFF" d="M78,103.7v-1c0-0.5-0.2-0.7-0.7-0.7h-0.2c-0.4,0-0.7,0.2-0.7,0.7v1.9c0,0.2,0,0.4,0.1,0.4
			c0.1,0.1,0.2,0.2,0.4,0.3l1.5,0.8c0.3,0.2,0.6,0.3,0.7,0.4c0.1,0.1,0.2,0.2,0.3,0.4c0.1,0.1,0.1,0.4,0.1,0.8v2.5
			c0,1.3-0.6,2-1.9,2h-1c-1.2,0-1.9-0.7-1.9-2.1v-0.6h1.6v0.6c0,0.5,0.2,0.7,0.7,0.7h0.3c0.4,0,0.6-0.2,0.6-0.7v-2
			c0-0.2,0-0.4-0.1-0.4c-0.1-0.1-0.2-0.2-0.4-0.3l-1.5-0.8c-0.3-0.2-0.6-0.3-0.7-0.4c-0.1-0.1-0.2-0.3-0.3-0.5
			c-0.1-0.2-0.1-0.4-0.1-0.7v-2.4c0-1.3,0.6-2,1.9-2h1c1.2,0,1.9,0.7,1.9,2v1.1H78z"/>
                <path fill="#FFFFFF" d="M84.1,112.2v-11.6H88v1.4h-2.3v3.5h2v1.4h-2v3.9H88v1.4H84.1z"/>
                <path fill="#FFFFFF" d="M92.3,100.6h3c1.2,0,1.8,0.7,1.8,2v2.9c0,1-0.3,1.7-0.9,1.9l1.1,4.8h-1.5l-1-4.7h-0.9v4.7h-1.6V100.6z
			 M93.9,106.2h1c0.5,0,0.7-0.3,0.7-0.8v-2.5c0-0.6-0.2-0.8-0.7-0.8h-1V106.2z"/>
                <path fill="#FFFFFF" d="M106.7,100.6l-1.9,11.6H103l-1.9-11.6h1.5l1.3,8.9l1.3-8.9H106.7z"/>
                <path fill="#FFFFFF" d="M110.8,112.2v-11.6h1.6v11.6H110.8z"/>
                <path fill="#FFFFFF" d="M121.7,109.5v0.7c0,1.3-0.6,2-1.9,2h-1c-1.2,0-1.9-0.7-1.9-2v-7.7c0-1.3,0.6-2,1.9-2h1
			c1.2,0,1.9,0.7,1.9,2v1.3h-1.6v-1.2c0-0.4-0.2-0.7-0.7-0.7h-0.3c-0.4,0-0.6,0.2-0.6,0.7v7.5c0,0.5,0.2,0.7,0.6,0.7h0.4
			c0.4,0,0.6-0.2,0.6-0.7v-0.6H121.7z"/>
                <path fill="#FFFFFF" d="M126.2,112.2v-11.6h3.9v1.4h-2.3v3.5h2v1.4h-2v3.9h2.3v1.4H126.2z"/>
                <path fill="#FFFFFF" d="M137.4,103.7v-1c0-0.5-0.2-0.7-0.7-0.7h-0.2c-0.4,0-0.7,0.2-0.7,0.7v1.9c0,0.2,0,0.4,0.1,0.4
			c0.1,0.1,0.2,0.2,0.4,0.3l1.5,0.8c0.3,0.2,0.6,0.3,0.7,0.4c0.1,0.1,0.2,0.2,0.3,0.4c0.1,0.1,0.1,0.4,0.1,0.8v2.5
			c0,1.3-0.6,2-1.9,2h-1c-1.2,0-1.9-0.7-1.9-2.1v-0.6h1.6v0.6c0,0.5,0.2,0.7,0.7,0.7h0.3c0.4,0,0.6-0.2,0.6-0.7v-2
			c0-0.2,0-0.4-0.1-0.4c-0.1-0.1-0.2-0.2-0.4-0.3l-1.5-0.8c-0.3-0.2-0.6-0.3-0.7-0.4c-0.1-0.1-0.2-0.3-0.3-0.5
			c-0.1-0.2-0.1-0.4-0.1-0.7v-2.4c0-1.3,0.6-2,1.9-2h1c1.2,0,1.9,0.7,1.9,2v1.1H137.4z"/>
            </g>
            <g>
                <path fill="#FFFFFF" d="M29.8,18.7c1.5-4.9,2.9-9.8,4.4-14.6c1.8-0.4,3.5-0.8,5.3-1.1c0,7.7,0,15.4,0,23.1c-1.6,0.3-3.2,0.6-4.8,1
			c0.2-5.1,0.3-10.1,0.5-15.2c-1.2,3.9-2.4,7.8-3.6,11.8c-1.2,0.3-2.4,0.6-3.7,0.9c-1.2-3.3-2.4-6.6-3.5-9.9c0.2,5,0.3,10,0.5,15
			c-1.6,0.5-3.1,0.9-4.7,1.4c0-7.7,0-15.4,0-23.1c1.7-0.6,3.5-1.1,5.2-1.6C26.9,10.4,28.4,14.5,29.8,18.7z"/>
                <path fill="#FFFFFF" d="M47.3,24.7c-1.6,0.2-3.2,0.5-4.8,0.8c0-6.4,0-12.7,0-19.1c0-2.6,1.9-4.3,5.8-4.8c1.2-0.2,2.4-0.3,3.6-0.5
			c3.9-0.4,5.8,0.8,5.8,3.4c0,6.4,0,12.7,0,19.1c-1.6,0.1-3.2,0.3-4.8,0.4c0-2.8,0-5.6,0-8.4c-1.9,0.2-3.7,0.4-5.5,0.7
			C47.3,19,47.3,21.9,47.3,24.7z M52.9,12.8c0-2.6,0-5.1,0-7.7c0-0.9-0.7-1.3-2.1-1.1c-0.4,0.1-0.9,0.1-1.3,0.2
			c-1.4,0.2-2.1,0.7-2.1,1.6c0,2.6,0,5.1,0,7.7C49.2,13.2,51,12.9,52.9,12.8z"/>
                <path fill="#FFFFFF" d="M60.7,23.3c0-7.7,0-15.4,0-23.1c1.6-0.1,3.2-0.2,4.9-0.2c0,7.7,0,15.4,0,23.1C64,23.2,62.4,23.3,60.7,23.3
			z"/>
                <path fill="#FFFFFF" d="M68.9,23.1c0-7.7,0-15.4,0-23.1c2.8,0,5.6,0,8.5,0.2c4.6,0.2,6.8,1.9,6.8,4.9c0,5.1,0,10.2,0,15.3
			c0,2.2-1.9,3.1-5.8,2.9C75.2,23.1,72,23.1,68.9,23.1z M73.7,20.3c1.2,0,2.4,0.1,3.6,0.1c1.3,0.1,1.9-0.2,1.9-0.9
			c0-4.9,0-9.8,0-14.8c0-1.1-0.7-1.7-2.2-1.8c-1.1-0.1-2.3-0.1-3.4-0.1C73.7,8.7,73.7,14.5,73.7,20.3z"/>
                <path fill="#FFFFFF" d="M97.9,5.3c0,6.8,0,13.5,0,20.3c-1.6-0.3-3.2-0.5-4.8-0.8c0-6.8,0-13.5,0-20.3c-1.5-0.2-3.1-0.4-4.6-0.6
			c0-0.9,0-1.9,0-2.8c4.7,0.5,9.4,1.3,14,2.3c0,0.9,0,1.9,0,2.8C100.9,5.8,99.4,5.5,97.9,5.3z"/>
                <path fill="#FFFFFF" d="M109.5,28c-3.8-1-5.8-2.6-5.8-5.3c0-5.1,0-10.1,0-15.2c0-2.6,1.9-3.6,5.7-2.6c1.5,0.4,3,0.8,4.5,1.2
			c3.8,1.1,5.6,3,5.6,5.7c0,5.1,0,10.1,0,15.2c0,2.6-1.9,3.3-5.7,2.2C112.4,28.8,111,28.4,109.5,28z M110.6,25.5
			c0.8,0.2,1.6,0.4,2.4,0.7c1.2,0.3,1.9,0.1,1.9-0.8c0-4.9,0-9.9,0-14.8c0-0.9-0.7-1.6-2.1-2c-0.7-0.2-1.5-0.4-2.2-0.6
			c-1.4-0.4-2.1-0.1-2.1,0.8c0,4.9,0,9.9,0,14.8C108.5,24.5,109.2,25.2,110.6,25.5z"/>
            </g>
            <path fill="#FFFFFF"
                  d="M139,16.4c-7,0-8.9,1.9-8.9,8.9c0-7-1.9-8.9-8.9-8.9c7,0,8.9-1.9,8.9-8.9C130.1,14.5,132,16.4,139,16.4z"/>
            <path fill="#FFFFFF" d="M161.5,21.4c-8.3,0-13.3,5.1-13.3,13.3c0-8.3-5.1-13.3-13.3-13.3c8.3,0,13.3-5.1,13.3-13.3
		C148.2,16.3,153.3,21.4,161.5,21.4z"/>
            <path fill="#FFFFFF" d="M145.8,36.4c-2.1,0-4.6,2.5-4.6,4.6c0-2.1-2.5-4.6-4.6-4.6c2.1,0,4.6-2.5,4.6-4.6
		C141.3,33.9,143.7,36.4,145.8,36.4z"/>
        </g>
    </symbol>
    <symbol viewBox="0 0 150 105.5" id="icon-logo">
        <title>logo</title>
        <g>
            <g>
                <path fill="#535253" d="M0,43.1c2.4-1.2,4.8-2.4,7.2-3.4c3.2-1.4,4.9,0.9,4.9,6.8c0.1,5.1,0.1,10.2,0.2,15.2
			c0.1,5.8-1.6,9-4.8,9.5c-1.1,0.2-2.3,0.4-3.4,0.5c0,5.8,0.1,11.5,0.1,17.3c-1.4,0-2.8,0-4.2,0C0,73.7,0,58.4,0,43.1z M4.1,65.9
			c0.9-0.2,1.7-0.4,2.6-0.6c1.1-0.2,1.6-1.3,1.6-3.2c0-4.6-0.1-9.2-0.1-13.8c0-1.9-0.6-2.7-1.8-2.2c-0.8,0.3-1.6,0.6-2.3,0.9
			C4,53.3,4,59.6,4.1,65.9z"/>
                <path fill="#535253" d="M14.8,89c-0.2-17.4-0.4-34.8-0.6-52.2c3.4-1.3,6.8-2.4,10.2-3.4c0,2.2,0.1,4.5,0.1,6.7
			c-2,0.5-4.1,1.1-6.1,1.7c0.1,5.4,0.1,10.9,0.2,16.3c1.8-0.4,3.6-0.7,5.4-1c0,2.2,0.1,4.5,0.1,6.7c-1.8,0.2-3.6,0.5-5.4,0.8
			c0.1,6,0.1,11.9,0.2,17.9c2-0.1,4.1-0.2,6.1-0.2c0,2.2,0.1,4.5,0.1,6.7C21.7,89,18.2,89,14.8,89z"/>
                <path fill="#535253" d="M26.3,32.8c2.7-0.8,5.4-1.4,8.2-2c3.2-0.7,4.9,2.4,4.9,9.2c0,4.9,0.1,9.7,0.1,14.6c0.1,5.2-0.7,8.5-2.4,10
			c1.1,8.1,2.1,16.2,3.2,24.4c-1.3,0-2.6,0-3.9,0c-1-7.9-2-15.7-3-23.4c-0.8,0.1-1.7,0.2-2.5,0.2c0.1,7.7,0.2,15.4,0.3,23.1
			c-1.4,0-2.8,0-4.2,0C26.8,70.3,26.5,51.6,26.3,32.8z M30.8,59.3c0.9-0.1,1.8-0.2,2.7-0.3c1.2-0.1,1.9-1.6,1.8-4.4
			c0-4.2-0.1-8.4-0.1-12.6c0-2.8-0.7-4.1-1.9-3.9c-0.9,0.2-1.8,0.4-2.7,0.6C30.6,45.6,30.7,52.4,30.8,59.3z"/>
                <path fill="#535253" d="M51.7,54c0,2.5,0,4.9,0,7.4c-1.8,0.1-3.7,0.2-5.5,0.3c0.1,9.1,0.1,18.2,0.2,27.3c-1.4,0-2.8,0-4.2,0
			c-0.2-19.9-0.4-39.7-0.6-59.6c3.5-0.6,7-1,10.5-1.3c0,2.5,0,4.9,0,7.4c-2.1,0.2-4.2,0.4-6.3,0.6c0,6.1,0.1,12.2,0.1,18.3
			C48,54.2,49.9,54.1,51.7,54z"/>
                <path fill="#535253" d="M54.3,89c-0.1-20.3-0.2-40.7-0.3-61c3.5-0.3,7.1-0.4,10.6-0.4c0,2.5,0,5,0,7.4c-2.1,0-4.2,0-6.3,0.1
			c0,6.2,0,12.4,0.1,18.6c1.8,0,3.7-0.1,5.5-0.1c0,2.5,0,5,0,7.4c-1.8,0-3.7,0-5.5,0.1c0,6.8,0,13.6,0.1,20.4c2.1,0,4.1,0,6.2,0
			c0,2.5,0,5,0,7.4C61.2,89,57.8,89,54.3,89z"/>
                <path fill="#535253" d="M79,74.8c0,1.3,0,2.6,0,3.9c0,6.9-1.7,10.3-5,10.3c-0.9,0-1.8,0-2.7,0c-3.3,0-5-3.5-5-10.4
			c0-13.5,0-27,0-40.5c0-6.9,1.7-10.4,5.1-10.3c0.9,0,1.8,0.1,2.8,0.2c3.4,0.2,5.1,3.9,5,10.7c0,2.3,0,4.6,0,6.8
			c-1.4-0.1-2.8-0.2-4.2-0.3c0-2.1,0-4.2,0-6.3c0-2.4-0.6-3.6-1.9-3.7c-0.3,0-0.6,0-0.8,0c-1.1-0.1-1.7,1.1-1.7,3.5
			c0,13.1-0.1,26.2-0.1,39.3c0,2.4,0.5,3.6,1.6,3.6c0.3,0,0.7,0,1,0c1.1,0,1.7-1.2,1.7-3.6c0-1.1,0-2.2,0-3.3
			C76.3,74.7,77.7,74.8,79,74.8z"/>
                <path fill="#535253" d="M88.3,36.8c-0.2,17.4-0.3,34.8-0.5,52.2c-1.4,0-2.8,0-4.2,0c0.1-17.6,0.3-35.2,0.4-52.8
			c-1.4-0.2-2.7-0.3-4.1-0.4c0-2.4,0-4.9,0-7.3c4.1,0.5,8.3,1.1,12.4,1.9c0,2.4-0.1,4.7-0.1,7.1C91,37.2,89.6,37,88.3,36.8z"/>
                <path fill="#535253" d="M93,89c0.2-19.5,0.4-38.9,0.7-58.4c1.4,0.3,2.8,0.6,4.2,0.9c-0.2,19.1-0.5,38.3-0.7,57.4
			C95.8,89,94.4,89,93,89z"/>
                <path fill="#535253" d="M104.8,89c-3.3,0-5-3.2-4.9-9.6c0.2-12.5,0.3-24.9,0.5-37.4c0.1-6.5,1.8-9.3,5.1-8.3
			c1.3,0.4,2.6,0.8,4,1.2c3.3,1.1,4.9,4.8,4.8,10.7c-0.1,11.5-0.3,23-0.4,34.5c-0.1,5.9-1.8,8.9-5.1,8.9C107.4,89,106.1,89,104.8,89
			z M105.9,82.3c0.7,0,1.4,0.1,2.1,0.1c1.1,0,1.7-1,1.7-3.1c0.1-11.5,0.3-23,0.4-34.5c0-2.1-0.6-3.3-1.8-3.7
			c-0.6-0.2-1.3-0.4-1.9-0.5c-1.2-0.3-1.8,0.6-1.9,2.8c-0.2,11.9-0.3,23.8-0.5,35.6C104,81.2,104.6,82.3,105.9,82.3z"/>
                <path fill="#535253" d="M125,64.3c0-7.7,0.1-15.4,0.1-23.1c1.3,0.6,2.6,1.3,3.9,1.9c0,15.3,0,30.6,0,45.9c-1.4,0-2.8,0-4.2,0
			c0-3.2,0-6.4,0-9.5c-1.4-7.4-2.8-15.1-4.2-23.1c-0.1,10.9-0.2,21.7-0.3,32.6c-1.4,0-2.8,0-4.2,0c0.2-17.1,0.4-34.3,0.5-51.4
			c1.3,0.5,2.7,1.1,4,1.7C122.2,47.9,123.6,56.2,125,64.3z"/>
            </g>
            <g>
                <path fill="#535253" d="M4.6,103v0.7c0,1.2-0.6,1.8-1.7,1.8H1.9c-1.1,0-1.7-0.6-1.7-1.8v-7.1c0-1.2,0.6-1.8,1.7-1.8h0.9
			c1.1,0,1.7,0.6,1.7,1.8v1.2H3.1v-1.1c0-0.4-0.2-0.6-0.6-0.6H2.2c-0.4,0-0.6,0.2-0.6,0.6v6.9c0,0.4,0.2,0.6,0.6,0.6h0.4
			c0.4,0,0.6-0.2,0.6-0.6V103H4.6z"/>
                <path fill="#535253" d="M12.1,105.5H8.7V94.7h1.4v9.4h2V105.5z"/>
                <path fill="#535253" d="M15.9,105.5V94.7h3.6V96h-2.1v3.3h1.9v1.3h-1.9v3.6h2.1v1.3H15.9z"/>
                <path fill="#535253" d="M24.8,105.5h-1.4v-8.9c0-1.2,0.6-1.8,1.7-1.8h1.1c1.1,0,1.7,0.6,1.7,1.8v8.9h-1.4v-3.9h-1.6V105.5z
			 M26.5,100.2v-3.6c0-0.4-0.2-0.6-0.6-0.6h-0.4c-0.4,0-0.6,0.2-0.6,0.6v3.6H26.5z"/>
                <path fill="#535253" d="M35.1,99.9v-5.2h1.4v10.7h-1.4v-2.1l-1.5-4.9v7h-1.4V94.7h1.4L35.1,99.9z"/>
                <path fill="#535253" d="M40.9,105.5V94.7h1.4v10.7H40.9z"/>
                <path fill="#535253" d="M49.6,99.9v-5.2h1.4v10.7h-1.4v-2.1l-1.5-4.9v7h-1.4V94.7h1.4L49.6,99.9z"/>
                <path fill="#535253" d="M57.6,101.5v-1.3h2.2v5.2H57c-1.1,0-1.7-0.6-1.7-1.8v-7.1c0-1.2,0.6-1.8,1.7-1.8h1c1.2,0,1.8,0.6,1.8,1.9
			v1.2h-1.4v-1c0-0.5-0.2-0.8-0.6-0.8h-0.4c-0.4,0-0.6,0.3-0.6,0.8v6.6c0,0.5,0.2,0.8,0.6,0.8h1v-2.6H57.6z"/>
                <path fill="#535253" d="M72.1,97.6v-0.9c0-0.4-0.2-0.6-0.6-0.6h-0.2c-0.4,0-0.6,0.2-0.6,0.6v1.8c0,0.2,0,0.3,0.1,0.4
			c0.1,0.1,0.2,0.2,0.4,0.3l1.4,0.7c0.3,0.2,0.5,0.3,0.6,0.4c0.1,0.1,0.2,0.2,0.3,0.3c0.1,0.1,0.1,0.4,0.1,0.8v2.3
			c0,1.2-0.6,1.8-1.7,1.8h-0.9c-1.1,0-1.7-0.7-1.7-2V103h1.4v0.6c0,0.4,0.2,0.6,0.6,0.6h0.3c0.4,0,0.6-0.2,0.6-0.6v-1.8
			c0-0.2,0-0.3-0.1-0.4c-0.1-0.1-0.2-0.2-0.4-0.3l-1.4-0.8c-0.3-0.2-0.5-0.3-0.7-0.4c-0.1-0.1-0.2-0.3-0.3-0.4
			c-0.1-0.2-0.1-0.4-0.1-0.7v-2.2c0-1.2,0.6-1.8,1.7-1.8h0.9c1.1,0,1.7,0.6,1.7,1.8v1H72.1z"/>
                <path fill="#535253" d="M77.7,105.5V94.7h3.6V96h-2.1v3.3H81v1.3h-1.9v3.6h2.1v1.3H77.7z"/>
                <path fill="#535253" d="M85.3,94.7h2.8c1.1,0,1.6,0.6,1.6,1.8v2.6c0,0.9-0.3,1.5-0.9,1.8l1,4.5h-1.4l-0.9-4.3h-0.9v4.3h-1.4V94.7z
			 M86.7,99.9h0.9c0.4,0,0.6-0.3,0.6-0.8v-2.3c0-0.5-0.2-0.8-0.6-0.8h-0.9V99.9z"/>
                <path fill="#535253" d="M98.6,94.7l-1.7,10.7h-1.7l-1.7-10.7h1.4l1.2,8.2l1.2-8.2H98.6z"/>
                <path fill="#535253" d="M102.4,105.5V94.7h1.4v10.7H102.4z"/>
                <path fill="#535253" d="M112.4,103v0.7c0,1.2-0.6,1.8-1.7,1.8h-0.9c-1.1,0-1.7-0.6-1.7-1.8v-7.1c0-1.2,0.6-1.8,1.7-1.8h0.9
			c1.1,0,1.7,0.6,1.7,1.8v1.2H111v-1.1c0-0.4-0.2-0.6-0.6-0.6h-0.3c-0.4,0-0.6,0.2-0.6,0.6v6.9c0,0.4,0.2,0.6,0.6,0.6h0.4
			c0.4,0,0.6-0.2,0.6-0.6V103H112.4z"/>
                <path fill="#535253" d="M116.5,105.5V94.7h3.6V96H118v3.3h1.9v1.3H118v3.6h2.1v1.3H116.5z"/>
                <path fill="#535253" d="M126.9,97.6v-0.9c0-0.4-0.2-0.6-0.6-0.6H126c-0.4,0-0.6,0.2-0.6,0.6v1.8c0,0.2,0,0.3,0.1,0.4
			c0.1,0.1,0.2,0.2,0.4,0.3l1.4,0.7c0.3,0.2,0.5,0.3,0.6,0.4c0.1,0.1,0.2,0.2,0.3,0.3c0.1,0.1,0.1,0.4,0.1,0.8v2.3
			c0,1.2-0.6,1.8-1.7,1.8h-0.9c-1.1,0-1.7-0.7-1.7-2V103h1.4v0.6c0,0.4,0.2,0.6,0.6,0.6h0.3c0.4,0,0.6-0.2,0.6-0.6v-1.8
			c0-0.2,0-0.3-0.1-0.4c-0.1-0.1-0.2-0.2-0.4-0.3l-1.4-0.8c-0.3-0.2-0.5-0.3-0.7-0.4c-0.1-0.1-0.2-0.3-0.3-0.4
			c-0.1-0.2-0.1-0.4-0.1-0.7v-2.2c0-1.2,0.6-1.8,1.7-1.8h0.9c1.1,0,1.7,0.6,1.7,1.8v1H126.9z"/>
            </g>
            <g>
                <path fill="#F68820" d="M27.6,17.3c1.4-4.6,2.7-9.1,4.1-13.6c1.6-0.4,3.3-0.7,4.9-1c0,7.1,0,14.3,0,21.4c-1.5,0.3-3,0.6-4.4,0.9
			c0.2-4.7,0.3-9.4,0.5-14.1c-1.1,3.6-2.2,7.3-3.3,10.9c-1.1,0.3-2.3,0.6-3.4,0.9c-1.1-3.1-2.2-6.2-3.3-9.2
			c0.2,4.6,0.3,9.3,0.5,13.9c-1.5,0.4-2.9,0.9-4.4,1.3c0-7.1,0-14.3,0-21.4c1.6-0.5,3.2-1,4.8-1.5C24.9,9.6,26.2,13.5,27.6,17.3z"/>
                <path fill="#F68820" d="M43.9,22.9c-1.5,0.2-3,0.4-4.5,0.7c0-5.9,0-11.8,0-17.8c0-2.4,1.8-4,5.4-4.5c1.1-0.2,2.2-0.3,3.4-0.4
			c3.6-0.4,5.4,0.7,5.4,3.2c0,5.9,0,11.8,0,17.8c-1.5,0.1-3,0.3-4.5,0.4c0-2.6,0-5.2,0-7.9c-1.7,0.2-3.4,0.4-5.1,0.6
			C43.9,17.7,43.9,20.3,43.9,22.9z M49,11.8c0-2.4,0-4.8,0-7.1c0-0.8-0.7-1.2-2-1c-0.4,0-0.8,0.1-1.2,0.2c-1.3,0.2-2,0.7-2,1.5
			c0,2.4,0,4.8,0,7.1C45.6,12.2,47.3,12,49,11.8z"/>
                <path fill="#F68820" d="M56.3,21.7c0-7.1,0-14.3,0-21.4c1.5-0.1,3-0.1,4.5-0.2c0,7.1,0,14.3,0,21.4C59.4,21.5,57.8,21.6,56.3,21.7
			z"/>
                <path fill="#F68820" d="M63.9,21.4c0-7.1,0-14.3,0-21.4c2.6,0,5.2,0,7.9,0.2C76,0.4,78.1,2,78.1,4.7c0,4.7,0,9.5,0,14.2
			c0,2.1-1.8,2.9-5.4,2.7C69.8,21.5,66.8,21.4,63.9,21.4z M68.4,18.9c1.1,0,2.3,0.1,3.4,0.1c1.2,0.1,1.8-0.2,1.8-0.9
			c0-4.6,0-9.2,0-13.7c0-1-0.7-1.6-2-1.7c-1,0-2.1-0.1-3.1-0.1C68.4,8.1,68.4,13.5,68.4,18.9z"/>
                <path fill="#F68820" d="M90.9,4.9c0,6.3,0,12.6,0,18.8c-1.5-0.3-3-0.5-4.5-0.7c0-6.3,0-12.6,0-18.8c-1.4-0.2-2.9-0.4-4.3-0.6
			c0-0.9,0-1.7,0-2.6c4.4,0.5,8.7,1.2,13,2.1c0,0.9,0,1.7,0,2.6C93.7,5.4,92.3,5.1,90.9,4.9z"/>
                <path fill="#F68820" d="M101.6,26c-3.6-0.9-5.3-2.5-5.3-4.9c0-4.7,0-9.4,0-14.1c0-2.4,1.8-3.3,5.3-2.4c1.4,0.4,2.8,0.7,4.2,1.1
			c3.5,1,5.2,2.8,5.2,5.3c0,4.7,0,9.4,0,14.1c0,2.4-1.7,3-5.3,2C104.4,26.7,103,26.4,101.6,26z M102.7,23.7c0.8,0.2,1.5,0.4,2.2,0.6
			c1.2,0.3,1.7,0.1,1.7-0.8c0-4.6,0-9.2,0-13.7c0-0.8-0.7-1.4-2-1.8c-0.7-0.2-1.4-0.4-2.1-0.6c-1.3-0.3-1.9-0.1-1.9,0.8
			c0,4.6,0,9.2,0,13.7C100.7,22.8,101.4,23.4,102.7,23.7z"/>
            </g>
            <path fill="#F68820" d="M129.1,16.5c-6.5,0-8.3,1.8-8.3,8.3c0-6.5-1.8-8.3-8.3-8.3c6.5,0,8.3-1.7,8.3-8.3
		C120.9,14.7,122.6,16.5,129.1,16.5z"/>
            <path fill="#F68820" d="M150,21.1c-7.7,0-12.4,4.7-12.4,12.4c0-7.7-4.7-12.4-12.4-12.4c7.7,0,12.4-4.7,12.4-12.4
		C137.6,16.4,142.3,21.1,150,21.1z"/>
            <path fill="#F68820" d="M135.4,35.1c-2,0-4.3,2.3-4.3,4.3c0-2-2.3-4.3-4.3-4.3c2,0,4.3-2.3,4.3-4.3
		C131.2,32.8,133.5,35.1,135.4,35.1z"/>
        </g>
    </symbol>
    <symbol viewBox="0 0 90.7 90.7" id="icon-mop-bucket-round">
        <title>mop-bucket-round</title>
        <g>
            <circle fill="#FFFFFF" cx="45.3" cy="45.3" r="45.3"/>
            <g>
                <path fill="#F68820" d="M71.9,37.5l-6,40.4c0,0-2,2.4-5,2.4c-3,0-30.9,0-30.9,0s-3.8,0.3-4.4-2.6c-0.6-2.9-2-9.5-2-9.5l10.6,0.1
			c0,0,7.9,0.3,17.1-7.9c7.7-6.8,8.5-9.1,8.5-9.1s2.8,0.3,3.9-1.6c1.1-2,0.8-4.7-1.4-5.8c-2.2-1.1-5.3-0.1-5.8,1.3
			c-0.5,1.4-1.2,3.3,0.3,4.5c0,0-9.6,14.7-19.7,15.5c-10.1,0.7-14,0.4-14,0.4l-5.6-28.1H71.9z"/>
                <path fill="#F68820"
                      d="M17.7,35.7h54.2c0,0-5.8-8-18.1-5.8c0,0-3.1-7.2-11.7-7c-8.6,0.2-10.8,7.2-10.8,7.2S23.3,26.6,17.7,35.7z"/>
                <ellipse fill="#F68820" cx="55.9" cy="21.6" rx="3.4" ry="3.7"/>
                <ellipse fill="#F68820" cx="38.1" cy="17.9" rx="2.4" ry="2.6"/>
                <ellipse fill="#F68820" cx="42" cy="13.6" rx="1.1" ry="1.2"/>
                <ellipse fill="#F68820" cx="27.7" cy="23.2" rx="1.6" ry="1.7"/>
                <ellipse fill="#F68820" cx="66.3" cy="24.8" rx="4.8" ry="4.5"/>
            </g>
        </g>
    </symbol>
    <symbol viewBox="0 0 54.2 68" id="icon-mop-bucket">
        <title>mop-bucket</title>
        <g>
            <path d="M54.2,25.2l-6,40.4c0,0-2,2.4-5,2.4c-3,0-30.9,0-30.9,0S8.6,68.3,8,65.4c-0.6-2.9-2-9.5-2-9.5L16.6,56
		c0,0,7.9,0.3,17.1-7.9c7.7-6.8,8.5-9.1,8.5-9.1s2.8,0.3,3.9-1.6c1.1-2,0.8-4.7-1.4-5.8c-2.2-1.1-5.3-0.1-5.8,1.3
		c-0.5,1.4-1.2,3.3,0.3,4.5c0,0-9.6,14.7-19.7,15.5c-10.1,0.7-14,0.4-14,0.4L0,25.2H54.2z"/>
            <path d="M0,23.3h54.2c0,0-5.8-8-18.1-5.8c0,0-3.1-7.2-11.7-7c-8.6,0.2-10.8,7.2-10.8,7.2S5.6,14.3,0,23.3z"/>
            <ellipse cx="38.2" cy="9.2" rx="3.4" ry="3.7"/>
            <ellipse cx="20.4" cy="5.5" rx="2.4" ry="2.6"/>
            <ellipse cx="24.4" cy="1.2" rx="1.1" ry="1.2"/>
            <ellipse cx="10" cy="10.8" rx="1.6" ry="1.7"/>
            <ellipse cx="48.6" cy="12.4" rx="4.8" ry="4.5"/>
        </g>
    </symbol>
    <symbol viewBox="0 0 67.4 104.6" id="icon-mop-stick">
        <title>mop-stick</title>
        <g>
            <path fill="#F68820" d="M18.5,73.9l9.5-2.5l-2.3-5.8l-4-1.7L3.3,1.5c0,0-0.4-1.5-1.7-1.5C0.3,0.1-0.3,1.3,0.2,2.4
		c0.5,1.2,18.5,61.7,18.5,61.7L17,67.6L18.5,73.9z"/>
            <path fill="#F68820" d="M19.6,74.3c0,0-2.5,4.7-2.5,6.5c0,1.8-0.8,3.9,7.5,7C37.3,91.9,45,91,44.8,93.9c-0.4,3.3,0,7-7.8,6
		c-1.9-0.4-6.9-2.1-9-2.5c-7.5-1.5-12.7-1.5-15.5-0.3c-3.6,1.5-1.7,2.1,0,1.7c1.7-0.4,6.1-1.1,9.3-0.5c3.2,0.6,8.5,1.9,10.7,2.3
		c2.2,0.3,10.6,1.8,13-0.8c2.4-2.6,3.7-4.7,2.6-6.6c-1.1-1.9-3.5-3.6-9-4.9c-5.6-1.3-13.5-1.1-17-4.2C18.6,80.9,17.7,79.2,19.6,74.3
		z"/>
            <path fill="#F68820" d="M20.7,74.3c0,0-2.7,8.6,5.7,10.6c2,0.4,3.7,0.8,5.7,1.2c8,1.4,16.2,2.6,16.9,6c0.8,4.3-0.9,11.3-9.4,10.2
		c-8.6-1.1-14.5-3.5-21.4-2.6c-6.9,0.8-8,1.9-7.7,3c0.3,1.1,1.5,1.2,3.4,0.2c1.9-1,6.4-1.8,9.5-0.8c3.1,1,17.2,4.2,21.7,1.9
		s7.3-5.8,7-8.6c-0.3-2.8,0.7-8.1-17.4-10.7C18.1,82.1,20.7,74.3,20.7,74.3z"/>
            <path fill="#F68820" d="M22.6,73.6c0,0-1.6,6.8,6.8,8.5c8.4,1.7,18.2,2.7,20.8,6c2.6,3.2,3.3,7.6,1.7,12.1c0,0,4.9-4.1,3.3-8.3
		c-1.6-4.3-3.1-6.7-8.4-8.1c-5.3-1.4-15.7-2.4-18.1-3.6C26.5,79.1,22.9,75.4,22.6,73.6z"/>
            <path fill="#F68820" d="M23.9,73.1c0,0,1.1,6,8.2,7c7.1,1,14.5,1.7,18.9,4.3c4.5,2.6,9.6,6.4,3.7,15.1c0,0,6.6-3.2,4.5-10.1
		c-2.2-6.9-10.2-8.3-13.7-8.7C42,80.4,31.2,80.1,28,77.1C24.7,74.1,23.9,73.1,23.9,73.1z"/>
            <path fill="#F68820" d="M25.7,73.6c0,0,2.2,4.2,7.6,4.7c7.1,0.7,16.6,0.9,20.2,3.2c3.6,2.3,6.9,4.5,7.3,7.4
		c0.4,2.9,1.2,6.1-2.8,9.5c0,0,6.1-2.5,5.7-7.3c-0.4-4.8-3.4-8.3-6.4-9.8c-3-1.5-8.7-2.7-15.2-3.2C42.2,78.2,28.4,77.6,25.7,73.6z"/>
            <path fill="#F68820" d="M26.4,72.5c0,0-0.3,2.8,9,3.9c9.2,1.1,21.4,2.1,24.2,4.3c2.8,2.3,8.6,7.8,4.5,15.2c0,0,4.6-5.3,2.9-9.6
		c-1.7-4.3-4.9-8.1-13.9-9c-9-0.9-16.3-1.5-18.5-1.9C32.2,75.1,28.8,74.9,26.4,72.5z"/>
            <path fill="#F68820" d="M38.4,99c0,0-10.7-2.6-12.6-3.1c-1.9-0.4-9.1-0.9-12-0.5c-2.9,0.4-2.4-0.2-2.2-1c0.2-0.8,2.2-1.3,4.3-1.3
		c2.1,0,10.6,2.3,11.9,2.8C29,96.4,38.4,99,38.4,99z"/>
            <path fill="#F68820" d="M40.9,98.2c0.2,0-7.9-1.3-10.9-2.6c-3-1.3-7.1-3.6-10.6-3.6s-6.3,0.8-6.9,0C12,91.3,13,90.4,14,90.1
		c1.1-0.3,4.8-0.8,6.8,0c2,0.8,4.3,2,6.2,2.8C28.8,93.8,33.3,97,40.9,98.2z"/>
        </g>
    </symbol>
    <symbol viewBox="0 0 31.2 31.1" id="icon-pinterest">
        <title>pinterest</title>
        <path d="M20.3,5.7h-9.5c-1.3,0-2.5,0.5-3.4,1.4C6.5,8.1,6,9.3,6,10.6v10.1c0,1.3,0.5,2.5,1.4,3.4
	c0.9,0.9,2.1,1.4,3.4,1.4h9.5c1.3,0,2.5-0.5,3.4-1.4c0.9-0.9,1.4-2.1,1.4-3.4V10.6c0-1.3-0.5-2.5-1.4-3.4
	C22.8,6.2,21.6,5.7,20.3,5.7z M15.6,21.8c-3.4,0-6.2-2.8-6.2-6.2s2.8-6.2,6.2-6.2s6.2,2.8,6.2,6.2S19,21.8,15.6,21.8z M21.9,10.7
	c-0.8,0-1.5-0.7-1.5-1.5c0-0.8,0.7-1.5,1.5-1.5c0.8,0,1.5,0.7,1.5,1.5C23.4,10,22.7,10.7,21.9,10.7z"/>
        <circle cx="15.6" cy="15.6" r="4.1"/>
        <path d="M31.2,24.3V6.8c0-3.8-3-6.8-6.8-6.8H6.8C3,0,0,3.1,0,6.8v17.5c0,3.8,3,6.8,6.8,6.8h17.6
	C28.1,31.1,31.2,28.1,31.2,24.3z M26.9,20.7c0,3.6-3,6.6-6.6,6.6h-9.5c-3.6,0-6.6-3-6.6-6.6V10.6C4.2,7,7.2,4,10.8,4h9.5
	c3.6,0,6.6,3,6.6,6.6V20.7z"/>
    </symbol>
    <symbol viewBox="0 0 47.1 56.1" id="icon-schedule-call">
        <title>schedule-call</title>
        <g>
            <path fill="#F68820" d="M28.7,45.4H3.1V6.9h25.6v7.8l3.1,0V4.1c0-2.3-1.8-4.1-4.1-4.1H4.1C1.8,0,0,1.8,0,4.1V52
		c0,2.2,1.8,4.1,4.1,4.1h23.6c2.3,0,4.1-1.8,4.1-4.1V40.1l-3.1,0V45.4z M25,2.6c0.6,0,1,0.5,1,1c0,0.6-0.5,1-1,1c-0.6,0-1-0.5-1-1
		C23.9,3,24.4,2.6,25,2.6z M10.4,3h10.9v1.2H10.4V3z M20.9,51.7h-10v-3.1h10V51.7z"/>
            <g>
                <path fill="#F68820"
                      d="M35.9,29.4c1,0.2,1.9-0.3,2.2-1.2l4.6-9.4l-7.5,7c0,0-0.7,0.6-0.9,1.3C34.1,28.1,34.8,29.1,35.9,29.4z"/>
                <path fill="#F68820" d="M42.3,18c-1.5-1.1-3.4-1.8-5.4-2v1.9c1.4,0.2,2.8,0.7,3.9,1.4L42.3,18z"/>
                <path fill="#F68820" d="M43.4,18.9l-0.9,1.8c1.6,1.7,2.7,4,2.7,6.6c0,5.3-4.3,9.6-9.6,9.6c-5.3,0-9.6-4.3-9.6-9.6
			c0-5,3.8-9.1,8.7-9.5v-1.9c-5.9,0.4-10.6,5.4-10.6,11.4c0,6.3,5.1,11.5,11.5,11.5c6.3,0,11.5-5.1,11.5-11.5
			C47.1,24,45.7,21,43.4,18.9z"/>
            </g>
            <text transform="matrix(1 0 0 1 11.0647 35.8382)" fill="#F68820" font-family="&apos;Oswald-Medium&apos;"
                  font-size="24.0864px">?
            </text>
        </g>
    </symbol>
    <symbol viewBox="0 0 30.2 30.2" id="icon-single-sparkle">
        <title>single-sparkle</title>
        <path fill="#F89B2A" d="M30.2,15.1c-11.9,0-15.1,3.2-15.1,15.1c0-11.9-3.2-15.1-15.1-15.1c11.9,0,15.1-3.2,15.1-15.1
	C15.1,11.9,18.3,15.1,30.2,15.1z"/>
    </symbol>
    <symbol viewBox="0 0 68.5 56.9" id="icon-sparkle">
        <title>sparkle</title>
        <g>
            <path d="M30.2,15.1c-11.9,0-15.1,3.2-15.1,15.1c0-11.9-3.2-15.1-15.1-15.1c11.9,0,15.1-3.2,15.1-15.1
		C15.1,11.9,18.3,15.1,30.2,15.1z"/>
            <path d="M68.5,23.6c-14.1,0-22.7,8.6-22.7,22.7c0-14.1-8.6-22.7-22.7-22.7C37.2,23.6,45.8,15,45.8,1
		C45.8,15,54.4,23.6,68.5,23.6z"/>
            <path d="M41.8,49.1c-3.6,0-7.8,4.2-7.8,7.8c0-3.6-4.2-7.8-7.8-7.8c3.6,0,7.8-4.2,7.8-7.8
		C34,44.9,38.2,49.1,41.8,49.1z"/>
        </g>
    </symbol>
    <symbol viewBox="0 0 90.7 90.7" id="icon-spray-bottle-round">
        <title>spray-bottle-round</title>
        <g>
            <circle fill="#FFFFFF" cx="45.3" cy="45.3" r="45.3"/>
            <g>
                <g>
                    <g>
                        <path fill="#F68820" d="M47.8,48.7v-6.5l-4.6-5.5H32.9L30,39.4c0,0-1.1,15.6-0.8,23.3c0.3,7.7-0.8,16.9,8.8,17.8
					c9.6,0.8,14.8,0,14.8,0s5.9,0.5,5.9-6.4c0-6.8,0-16.1,0-16.1L47.8,48.7z M41.7,65c-1.5-1.3-4.7-9.8-5.5-12.2
					c-0.8-2.4-0.7-14.2-0.7-14.2H38c0,0,0.5,12.1,1,13.7c0.5,1.7,4.9,11,4.9,12.6C43.9,66.6,43.2,66.3,41.7,65z"/>
                    </g>
                </g>
                <path fill="#F68820"
                      d="M31.6,35.3H43V28l6-4v-7.8H33.5c0,0-6.8,8.3-9.9,8.6c0,0,7.3,2.4,7.7,4.4L31.6,35.3z"/>
                <path fill="#F68820" d="M49.6,16.3v7.9l5-1c0,0-1.3-3.7,0-6.3L49.6,16.3z"/>
                <path fill="#F68820"
                      d="M48.2,25.4l-4.3,2.7c0,0,1,5.4,9.1,4.9c0,0,0.5-1.4-0.9-1.4C50.6,31.5,47.4,27.9,48.2,25.4z"/>
                <path fill="#F68820" d="M65.4,14.3l-9.9,3c-0.2,0.1-0.3,0.3-0.2,0.4l0.1,0.2c0.1,0.2,0.3,0.3,0.4,0.2l9.9-3
			c0.2-0.1,0.3-0.3,0.2-0.4l-0.1-0.2C65.8,14.4,65.6,14.2,65.4,14.3z"/>
                <path fill="#F68820" d="M65.6,26.2l-9.9-3c-0.2-0.1-0.3-0.3-0.2-0.4l0.1-0.2c0.1-0.2,0.3-0.3,0.4-0.2l9.9,3
			c0.2,0.1,0.3,0.3,0.2,0.4l-0.1,0.2C66,26.1,65.8,26.2,65.6,26.2z"/>
                <path fill="#F68820" d="M66.3,20.9l-10.4-0.3c-0.2,0-0.3-0.2-0.3-0.4l0-0.2c0-0.2,0.2-0.3,0.4-0.3l10.4,0.3c0.2,0,0.3,0.2,0.3,0.4
			l0,0.2C66.7,20.7,66.5,20.9,66.3,20.9z"/>
            </g>
        </g>
    </symbol>
    <symbol viewBox="0 0 43.1 66.6" id="icon-spray-bottle">
        <title>spray-bottle</title>
        <g>
            <g>
                <g>
                    <path d="M24.2,34.4v-6.5l-4.6-5.5H9.3l-2.9,2.7c0,0-1.1,15.6-0.8,23.3c0.3,7.7-0.8,16.9,8.8,17.8
				c9.6,0.8,14.8,0,14.8,0s5.9,0.5,5.9-6.4c0-6.8,0-16.1,0-16.1L24.2,34.4z M18.1,50.7c-1.5-1.3-4.7-9.8-5.5-12.2
				c-0.8-2.4-0.7-14.2-0.7-14.2h2.4c0,0,0.5,12.1,1,13.7c0.5,1.7,4.9,11,4.9,12.6C20.3,52.3,19.6,52,18.1,50.7z"/>
                </g>
            </g>
            <path d="M8.1,21h11.3v-7.3l6-4V2H9.9c0,0-6.8,8.3-9.9,8.6c0,0,7.3,2.4,7.7,4.4L8.1,21z"/>
            <path d="M26,2v7.9l5-1c0,0-1.3-3.7,0-6.3L26,2z"/>
            <path d="M24.6,11.1l-4.3,2.7c0,0,1,5.4,9.1,4.9c0,0,0.5-1.4-0.9-1.4C27.1,17.2,23.8,13.6,24.6,11.1z"/>
            <path d="M41.8,0l-9.9,3c-0.2,0.1-0.3,0.3-0.2,0.4l0.1,0.2C31.8,3.9,32,4,32.2,3.9l9.9-3c0.2-0.1,0.3-0.3,0.2-0.4
		l-0.1-0.2C42.2,0.1,42,0,41.8,0z"/>
            <path d="M42,11.9l-9.9-3c-0.2-0.1-0.3-0.3-0.2-0.4L32,8.2C32,8,32.2,7.9,32.4,8l9.9,3c0.2,0.1,0.3,0.3,0.2,0.4
		l-0.1,0.2C42.4,11.8,42.2,11.9,42,11.9z"/>
            <path d="M42.7,6.6L32.4,6.2c-0.2,0-0.3-0.2-0.3-0.4l0-0.2c0-0.2,0.2-0.3,0.4-0.3l10.4,0.3c0.2,0,0.3,0.2,0.3,0.4
		l0,0.2C43.1,6.4,42.9,6.6,42.7,6.6z"/>
        </g>
    </symbol>
    <symbol viewBox="0 0 90.7 90.7" id="icon-vacuum-side-view-round">
        <title>vacuum-side-view-round</title>
        <g>
            <circle fill="#FFFFFF" cx="45.3" cy="45.3" r="45.3"/>
            <g>
                <g>
                    <g>
                        <path fill="#F68820" d="M34.4,60.2c0,0-0.1-1.6-2-1.6h-3.7v0.6h-4.6v-0.7h-2.3c0,0-2,0-2.2,2.7h14.9V60.2z M59.6,55
					c2.3-7.7,10-5.8,10-5.8V32.5c0,0-1.8-6.7-7.8-5.2c-6,1.5-10.6,2.4-10.6,2.4s-4.8,1.3-5.8,5.3c0,0-1.5-0.3-2.2,0
					c-0.7,0.3-1.7,0.2-1.9,4.7c0,0-2.5-0.1-3.3-2.7c-0.8-2.7,0.4-9.7,0.9-12.1c0.5-2.4-0.5-9.4-6.7-9.4c-6.1,0-7.6,5.5-7.6,8.5v34.1
					h3.6V24.8c0,0,0.3-6.4,3.7-6.4c3.4,0,5.2,3.5,3.7,7.1c-1.5,3.6-1.5,8.7-1.1,10.3c0.3,1.5,0.9,5.7,5.6,7.2c0,0-1.6,3.8,1.8,4.8
					l-2.4,12.6c0,0-0.7,7.6,8.7,7.4c9.4-0.1,14,0,14,0s4.8,0.1,4.8-1.8C67.2,66.2,57.4,64.7,59.6,55z M47.5,36.5
					c0,0-4.8,21.8-5.1,25c-0.3,3.3,3.6,5,3.6,5c-2.8-0.4-4.9-3.3-5-5c-0.2-1.7,2.7-14.1,2.7-14.1l-1.3-0.5L44.9,36l1.3,0.2
					c3.8-6,9-4.5,9-4.5C51.1,31.6,47.5,36.5,47.5,36.5z M66.4,31.5c1.1,0,1.9,0.9,1.9,1.9s-0.9,1.9-1.9,1.9c-1.1,0-1.9-0.9-1.9-1.9
					S65.4,31.5,66.4,31.5z M56.2,37.9c0-2.5,2-4.5,4.5-4.5c2.5,0,4.5,2,4.5,4.5c0,2.5-2,4.5-4.5,4.5C58.3,42.5,56.2,40.4,56.2,37.9z
					 M37.3,61.8h-1.9v0.9H17.6v-1h-1.2c0,0-2-0.1-2,2.1c0,2.2,0,2.7,0,2.7S15,68,16.8,68c1.8,0,19.6,0,19.6,0s2.5-0.2,2.5-1.2
					c0-1,0-2.9,0-2.9S38.8,61.8,37.3,61.8z M67.9,50c-4.2,0-7.6,3.4-7.6,7.6c0,4.2,3.4,7.6,7.6,7.6c4.2,0,7.6-3.4,7.6-7.6
					C75.4,53.3,72,50,67.9,50z M68,61.5c-2.2,0-4-1.8-4-4c0-2.2,1.8-4,4-4c2.2,0,4,1.8,4,4C72,59.7,70.2,61.5,68,61.5z"/>
                    </g>
                </g>
            </g>
        </g>
    </symbol>
    <symbol viewBox="0 0 60.9 52.4" id="icon-vacuum-side-view">
        <title>vacuum-side-view</title>
        <g>
            <g>
                <g>
                    <path d="M45.1,39.4c2.3-7.7,10-5.8,10-5.8V17c0,0-1.8-6.7-7.8-5.2c-6,1.5-10.6,2.4-10.6,2.4s-4.8,1.3-5.8,5.3
				c0,0-1.5-0.3-2.2,0c-0.7,0.3-1.7,0.2-1.9,4.7c0,0-2.5-0.1-3.3-2.7c-0.8-2.7,0.4-9.7,0.9-12.1C25,7,24,0,17.8,0s-7.6,5.5-7.6,8.5
				v34.1h3.6V9.3c0,0,0.3-6.4,3.7-6.4c3.4,0,5.2,3.5,3.7,7.1c-1.5,3.6-1.5,8.7-1.1,10.3c0.3,1.5,0.9,5.7,5.6,7.2
				c0,0-1.6,3.9,1.8,4.8L25.2,45c0,0-0.7,7.6,8.7,7.4c9.4-0.1,14,0,14,0s4.8,0.1,4.8-1.8C52.7,50.7,42.9,49.1,45.1,39.4z M33.1,20.9
				c0,0-4.8,21.8-5.1,25c-0.3,3.3,3.6,5,3.6,5c-2.8-0.4-4.9-3.3-5-5c-0.2-1.7,2.7-14.1,2.7-14.1l-1.3-0.5l2.5-10.9l1.3,0.2
				c3.8-6,9-4.5,9-4.5C36.6,16,33.1,20.9,33.1,20.9z M51.9,15.9c1.1,0,1.9,0.9,1.9,1.9s-0.9,1.9-1.9,1.9S50,18.9,50,17.9
				S50.9,15.9,51.9,15.9z M41.7,22.4c0-2.5,2-4.5,4.5-4.5c2.5,0,4.5,2,4.5,4.5c0,2.5-2,4.5-4.5,4.5C43.8,26.9,41.7,24.9,41.7,22.4z
				 M19.9,44.7c0,0-0.1-1.6-2-1.6h-3.7v0.6H9.6v-0.7H7.3c0,0-2,0-2.2,2.7h14.9V44.7z M22.8,46.3h-1.9v0.9H3.1v-1H2c0,0-2-0.1-2,2.1
				C0,50.6,0,51,0,51s0.5,1.4,2.3,1.4c1.8,0,19.6,0,19.6,0s2.5-0.2,2.5-1.2s0-2.9,0-2.9S24.3,46.3,22.8,46.3z M53.4,34.4
				c-4.2,0-7.6,3.4-7.6,7.6c0,4.2,3.4,7.6,7.6,7.6c4.2,0,7.6-3.4,7.6-7.6C60.9,37.8,57.5,34.4,53.4,34.4z M53.5,46c-2.2,0-4-1.8-4-4
				c0-2.2,1.8-4,4-4c2.2,0,4,1.8,4,4C57.5,44.2,55.7,46,53.5,46z"/>
                </g>
            </g>
        </g>
    </symbol>
    <symbol viewBox="0 0 184.4 134.4" id="icon-vacuum-sparkle">
        <title>vacuum-sparkle</title>
        <g>
            <g>
                <path d="M146.1,15.1c-11.9,0-15.1,3.2-15.1,15.1c0-11.9-3.2-15.1-15.1-15.1c11.9,0,15.1-3.2,15.1-15.1
			C131,11.9,134.2,15.1,146.1,15.1z"/>
                <path d="M184.4,23.6c-14.1,0-22.7,8.6-22.7,22.7c0-14.1-8.6-22.7-22.7-22.7c14.1,0,22.7-8.6,22.7-22.7
			C161.7,15,170.3,23.6,184.4,23.6z"/>
                <path d="M157.7,49.1c-3.6,0-7.8,4.2-7.8,7.8c0-3.6-4.2-7.8-7.8-7.8c3.6,0,7.8-4.2,7.8-7.8
			C149.9,44.9,154.1,49.1,157.7,49.1z"/>
            </g>
            <g>
                <g>
                    <g>
                        <path d="M52.8,120.3h-4.4v2.2H7.3v-2.3H4.6c0,0-4.6-0.2-4.6,4.9c0,5.2,0,6.1,0,6.1s1.1,3.2,5.3,3.2
					c4.1,0,45.2,0,45.2,0s5.7-0.5,5.7-2.8c0-2.3,0-6.6,0-6.6S56.2,120.3,52.8,120.3z M46,116.5c0,0-0.3-3.6-4.5-3.6h-8.6v1.3H22.3
					v-1.7h-5.4c0,0-4.6-0.1-5.2,6.4H46V116.5z M123.4,92.8c-9.7,0-17.5,7.8-17.5,17.5c0,9.7,7.8,17.5,17.5,17.5
					c9.7,0,17.5-7.8,17.5-17.5C140.9,100.6,133,92.8,123.4,92.8z M123.8,119.5c-5,0-9.1-4.1-9.1-9.1c0-5.1,4.1-9.1,9.1-9.1
					c5.1,0,9.1,4.1,9.1,9.1C132.9,115.4,128.8,119.5,123.8,119.5z M104.2,104.4c5.2-17.7,23.2-13.4,23.2-13.4V52.5
					c0,0-4.2-15.5-18.1-12.1c-13.9,3.4-24.4,5.7-24.4,5.7s-11.2,3.1-13.4,12.3c0,0-3.4-0.7-5,0c-1.6,0.7-3.9,0.5-4.4,10.9
					c0,0-5.8-0.1-7.6-6.3c-1.8-6.2,1-22.5,2.2-28c1.2-5.6-1.2-21.7-15.4-21.7C27,13.3,23.7,26,23.7,32.9v78.8H32v-77
					c0,0,0.8-14.7,8.6-14.7c7.8,0,12,8.1,8.6,16.5c-3.4,8.4-3.4,20.2-2.6,23.8c0.8,3.6,2.1,13.3,12.9,16.7c0,0-3.7,8.9,4.2,11.2
					l-5.5,29.1c0,0-1.6,17.5,20.1,17.2c21.7-0.3,32.4,0,32.4,0s11.2,0.2,11.2-4C121.8,130.4,99.2,126.9,104.2,104.4z M120.1,50.1
					c2.5,0,4.4,2,4.4,4.4c0,2.5-2,4.4-4.4,4.4c-2.5,0-4.4-2-4.4-4.4C115.6,52.1,117.6,50.1,120.1,50.1z M76.4,61.7
					c0,0-11.2,50.4-11.9,57.9c-0.7,7.5,8.3,11.5,8.3,11.5c-6.6-1-11.3-7.6-11.7-11.7c-0.4-4,6.3-32.5,6.3-32.5l-2.9-1.2l5.8-25.2
					l3,0.4C82.1,47,94.1,50.5,94.1,50.5C84.6,50.3,76.4,61.7,76.4,61.7z M96.5,65c0-5.8,4.7-10.5,10.5-10.5
					c5.8,0,10.5,4.7,10.5,10.5s-4.7,10.5-10.5,10.5C101.2,75.5,96.5,70.8,96.5,65z"/>
                    </g>
                </g>
            </g>
        </g>
    </symbol>
</svg>