<svg version="1.1" viewBox="0 0 51.8 57.5">
<g id="_x3C_Group_x3E__1_">
	<path fill="#F68820" d="M44,0c4.3,0,7.8,3.7,7.8,8.3v40.9c0,4.6-3.5,8.3-7.8,8.3H7.8c-4.3,0-7.8-3.7-7.8-8.3V8.3C0,3.7,3.5,0,7.8,0
		H44 M44,4.2H7.8C5.6,4.2,3.9,6,3.9,8.3v40.9c0,2.3,1.7,4.2,3.9,4.2H44c2.1,0,3.9-1.9,3.9-4.2V8.3C47.9,6,46.2,4.2,44,4.2L44,4.2z
		 M9.8,7.1c-1.9,0-2.9,1-2.9,2.5v9.9c0,1,0.4,2.1,2.3,2.1h33.7c1.8,0,2-1.1,2-1.8v-10c0-1.4-0.5-2.8-2.4-2.8H9.8z M9.8,23.6
		c-1.1,0-2.3-0.1-2.3,2.2v7.7c0,1.8,0.5,2.6,2.1,2.6h12.2c2.3,0,2.1-1.5,2.1-2.4v-7.8c0-1.9-0.6-2.4-2-2.4H9.8z M31.5,23.8
		c-1.1,0-2.3,0.2-2.3,2v21.3c0,2.4,0.5,2.6,2.1,2.6h12.8c1.2,0,1.4,0.1,1.4-1.7V26.6c0-2.4-0.6-2.9-2-2.9H31.5z M9.7,37.8
		c-1.1,0-2.3-0.1-2.3,2.2v7.7c0,1.8,0.5,2.6,2.1,2.6h12.2c2.3,0,2.1-1.5,2.1-2.4v-7.8c0-1.9-0.6-2.4-2-2.4H9.7z M32.7,11.8v3.6
		c0,0.8,0,1.4-0.1,1.8c-0.1,0.4-0.3,0.7-0.6,1c-0.3,0.3-0.6,0.6-1,0.7c-0.4,0.1-0.8,0.2-1.3,0.2c-0.6,0-1.2-0.1-1.6-0.2
		c-0.4-0.2-0.8-0.4-1-0.7c-0.2-0.3-0.4-0.6-0.5-1c-0.1-0.4-0.2-0.9-0.2-1.7v-3.8c0-1,0.1-1.7,0.3-2.2c0.2-0.5,0.5-0.9,1-1.2
		C28.1,8.1,28.7,8,29.4,8C30,8,30.6,8.1,31,8.3c0.5,0.2,0.8,0.5,1.1,0.8c0.2,0.3,0.4,0.6,0.5,1C32.6,10.4,32.7,11,32.7,11.8z
		 M31.2,10.8c0-0.6-0.1-1-0.3-1.2c-0.2-0.2-0.7-0.2-1.5-0.2c-0.8,0-1.3,0.1-1.5,0.2c-0.2,0.2-0.4,0.6-0.4,1.2v5.8
		c0,0.7,0.1,1.1,0.3,1.2c0.2,0.1,0.7,0.2,1.5,0.2c0.7,0,1.2-0.1,1.5-0.2c0.2-0.2,0.3-0.5,0.3-1.1V10.8z M42.1,11.8v3.6
		c0,0.8,0,1.4-0.1,1.8c-0.1,0.4-0.3,0.7-0.5,1c-0.3,0.3-0.6,0.6-1,0.7c-0.4,0.1-0.8,0.2-1.3,0.2c-0.6,0-1.2-0.1-1.6-0.2
		c-0.4-0.2-0.8-0.4-1-0.7c-0.3-0.3-0.4-0.6-0.5-1c-0.1-0.4-0.2-0.9-0.2-1.7v-3.8c0-1,0.1-1.7,0.3-2.2c0.2-0.5,0.5-0.9,1-1.2
		C37.5,8.1,38.1,8,38.8,8c0.6,0,1.1,0.1,1.6,0.3c0.5,0.2,0.8,0.5,1.1,0.8c0.2,0.3,0.4,0.6,0.5,1C42,10.4,42.1,11,42.1,11.8z
		 M40.6,10.8c0-0.6-0.1-1-0.3-1.2c-0.2-0.2-0.7-0.2-1.5-0.2c-0.7,0-1.2,0.1-1.5,0.2c-0.2,0.2-0.4,0.6-0.4,1.2v5.8
		c0,0.7,0.1,1.1,0.3,1.2c0.2,0.1,0.7,0.2,1.5,0.2c0.7,0,1.2-0.1,1.5-0.2c0.2-0.2,0.3-0.5,0.3-1.1V10.8z M20.5,31.1h-3.3v3.4h-2.9
		v-3.4H11v-2.9h3.4v-3.3h2.9v3.3h3.3V31.1z M19.8,46.9h-9.7v-3.7h9.7V46.9z M42.6,35.1h-9.7v-3.7h9.7V35.1z M42.7,41.2H33v-3.7h9.7
		V41.2z"/>
</g>
</svg>