<!-- Generator: Adobe Illustrator 20.1.0, SVG Export Plug-In  -->
<svg version="1.1"
	 xmlns="http://www.w3.org/2000/svg" xmlns:xlink="http://www.w3.org/1999/xlink" xmlns:a="http://ns.adobe.com/AdobeSVGViewerExtensions/3.0/"
	 x="0px" y="0px" width="12.2px" height="21.5px" viewBox="0 0 12.2 21.5" enable-background="new 0 0 12.2 21.5"
	 xml:space="preserve">
<g>
	<path d="M11,17.4H1.2V2.6H11v12.2h1.2V1.6c0-0.9-0.7-1.6-1.6-1.6h-9C0.7,0,0,0.7,0,1.6v18.4c0,0.9,0.7,1.6,1.6,1.6
		h9c0.9,0,1.6-0.7,1.6-1.6V13H11V17.4z M9.6,1C9.8,1,10,1.2,10,1.4c0,0.2-0.2,0.4-0.4,0.4c-0.2,0-0.4-0.2-0.4-0.4
		C9.2,1.2,9.4,1,9.6,1z M4,1.1h4.2v0.5H4V1.1z M8,19.8H4.2v-1.2H8V19.8z"/>
</g>
</svg>
