<!-- Generator: Adobe Illustrator 20.1.0, SVG Export Plug-In  -->
<svg version="1.1"
	 xmlns="http://www.w3.org/2000/svg" xmlns:xlink="http://www.w3.org/1999/xlink" xmlns:a="http://ns.adobe.com/AdobeSVGViewerExtensions/3.0/"
	 x="0px" y="0px" width="23.1px" height="23.1px" viewBox="0 0 23.1 23.1" enable-background="new 0 0 23.1 23.1"
	 xml:space="preserve">
<g>
	<path d="M19.2,0H3.9C1.7,0,0,1.8,0,3.9v15.3c0,2.2,1.7,3.9,3.9,3.9h7.5v-9.4H8.9v-3.2h2.5c0,0,0-2.1,0-2.5
		c0-0.5-0.1-3.6,3.9-3.6c0.5,0,1.9,0,3,0c0,1.4,0,2.8,0,3.2c-0.8,0-1.8,0-2.2,0c-0.4,0-0.8,0.4-0.8,0.7c0,0.3,0,2.1,0,2.1
		s2.6,0,2.9,0c-0.1,1.6-0.4,3.2-0.4,3.2h-2.5v9.4h4c2.2,0,3.9-1.7,3.9-3.9V3.9C23.1,1.8,21.4,0,19.2,0z"/>
</g>
</svg>