<!-- Generator: Adobe Illustrator 20.1.0, SVG Export Plug-In  -->
<svg version="1.1" viewBox="0 0 31.2 31.1">
<path d="M31.2,24.3v-6.8h-1.9v2.5h-2.5v-2.5h-2.5V15h2.5v-2.5h2.5V15h1.9V6.8c0-3.8-3-6.8-6.8-6.8H6.8
	C3,0,0,3.1,0,6.8v17.5c0,3.8,3,6.8,6.8,6.8h17.6C28.1,31.1,31.2,28.1,31.2,24.3z M13.2,24.9c-4.8,0-8.6-3.9-8.6-8.6
	c0-4.8,3.9-8.6,8.6-8.6c2.3,0,4.3,0.9,5.8,2.3l-2.3,2.3c-0.6-0.6-1.8-1.3-3.4-1.3c-3,0-5.4,2.4-5.4,5.5c0,3,2.4,5.5,5.4,5.5
	c3.4,0,4.7-2.5,4.9-3.7h-4.9v-3h8.2c0.1,0.4,0.1,0.9,0.1,1.4C21.5,21.4,18.2,24.9,13.2,24.9z"/>
</svg>