<!-- Generator: Adobe Illustrator 20.1.0, SVG Export Plug-In  -->
<svg version="1.1"
	 xmlns="http://www.w3.org/2000/svg" xmlns:xlink="http://www.w3.org/1999/xlink" xmlns:a="http://ns.adobe.com/AdobeSVGViewerExtensions/3.0/"
	 x="0px" y="0px" width="65.4px" height="59px" viewBox="0 0 65.4 59" enable-background="new 0 0 65.4 59" xml:space="preserve">
<g>
	<g>
		<g>
			<path d="M59.4,43.1c-0.5-0.9-6.9-12.7-8.5-13.3c-1.7-0.6-16.9-3.4-19.4-3.6c-2.5-0.2-7.3-3.2-7.3-3.2l0.2-0.9
				l-9-9.5L0,29.4l8.7,8.5l0.6-0.2c0,0,3.1,2.8,3.6,5.9c0.6,3.1,2,4.6,2,4.6s-0.7,1.4-2.8,0.9c-2.1-0.5-3.1,0.2-1.1,3.2
				c2,3,6.4,7.2,8.7,6.8c2.3-0.4,6.8-4.4,10.8-3.2c4.1,1.3,13.3,4.2,16,2.4c2.7-1.8,6.1-6.2,9.6-6c3.5,0.2,9.4-1.5,9.3-4.8
				C65.3,44.1,59.9,44.1,59.4,43.1z M51.5,42.1c-2.8,0.1-6-1.7-7.3-3.8c-1.3-2.1-7.6-0.2-10.7-0.2s-2.5,2.6-1.6,3.5
				c0.9,0.9,3,1.3,6.1,0.5c3.1-0.8,5.5,0.5,3.6,2.3c-1.9,1.8-4.9,3.6-8,2.9c-3.1-0.7-9,0.6-12.3,0.5c-3.3-0.2-6.2-6.6-6.8-8.5
				c-0.6-1.9-2-5-2-5l8.9-9c1.1,1.1,7.7,5.3,9,5.2c1.3-0.1,3.2,0.1,4.8,0.8c1.6,0.6,5.3,1.2,8.8,1.5c3.5,0.3,4.2,1.4,5.4,3.1
				c1.2,1.7,1.9,2.8,3.3,3.8C54.1,40.7,54.3,42,51.5,42.1z"/>
		</g>
	</g>
	<path d="M35.6,10.3c0,0,0.9,7.1-6.9,7.1c0,0,6.9,0.1,6.9,6.7c0,0-0.8-7.3,6.9-7.1C42.5,17.1,35.6,17.3,35.6,10.3z"
		/>
	<path d="M49.1,0c0,0,1.3,10.6-10.4,10.6c0,0,10.4,0.2,10.4,10.1c0,0-1.2-10.9,10.4-10.6C59.5,10.1,49.1,10.5,49.1,0
		z"/>
</g>
</svg>
