<!-- Generator: Adobe Illustrator 20.1.0, SVG Export Plug-In  -->
<svg version="1.1" viewBox="0 0 90.7 90.7">
<g>
	<circle fill="#FFFFFF" cx="45.3" cy="45.3" r="45.3"/>
	<g>
		<g>
			<g>
				<path fill="#F68820" d="M70.4,61.7C70,60.8,63.6,49,61.9,48.4c-1.7-0.6-16.9-3.4-19.4-3.6c-2.5-0.2-7.3-3.2-7.3-3.2l0.2-0.9
					l-9-9.5L11.1,47.9l8.7,8.5l0.6-0.2c0,0,3.1,2.8,3.6,5.9c0.6,3.1,2,4.6,2,4.6s-0.7,1.4-2.8,0.9C21,67.1,20,67.8,22,70.8
					c2,3,6.4,7.2,8.7,6.8c2.3-0.4,6.8-4.4,10.8-3.2c4.1,1.3,13.3,4.2,16,2.4c2.7-1.8,6.1-6.2,9.6-6c3.5,0.2,9.4-1.5,9.3-4.8
					C76.4,62.7,70.9,62.7,70.4,61.7z M62.6,60.7c-2.8,0.1-6-1.7-7.3-3.8c-1.3-2.1-7.6-0.2-10.7-0.2c-3.1,0-2.5,2.6-1.6,3.5
					c0.9,0.9,3,1.3,6.1,0.5c3.1-0.8,5.5,0.5,3.6,2.3c-1.9,1.8-4.9,3.6-8,2.9c-3.1-0.7-9,0.6-12.3,0.5c-3.3-0.2-6.2-6.6-6.8-8.5
					c-0.6-1.9-2-5-2-5l8.9-9c1.1,1.1,7.7,5.3,9,5.2c1.3-0.1,3.2,0.1,4.8,0.8c1.6,0.6,5.3,1.2,8.8,1.5c3.5,0.3,4.2,1.4,5.4,3.1
					c1.2,1.7,1.9,2.8,3.3,3.8C65.2,59.3,65.3,60.6,62.6,60.7z"/>
			</g>
		</g>
	</g>
	<g>
		<path fill="#F68820" d="M50.6,20.2c-6.2,0-7.9,1.7-7.9,7.9c0-6.2-1.7-7.9-7.9-7.9c6.2,0,7.9-1.7,7.9-7.9
			C42.7,18.5,44.4,20.2,50.6,20.2z"/>
		<path fill="#F68820" d="M70.7,24.6c-7.4,0-11.9,4.5-11.9,11.9c0-7.4-4.5-11.9-11.9-11.9c7.4,0,11.9-4.5,11.9-11.9
			C58.8,20.1,63.3,24.6,70.7,24.6z"/>
		<path fill="#F68820" d="M56.7,38c-1.9,0-4.1,2.2-4.1,4.1c0-1.9-2.2-4.1-4.1-4.1c1.9,0,4.1-2.2,4.1-4.1C52.6,35.8,54.8,38,56.7,38z
			"/>
	</g>
</g>
</svg>