<!-- Generator: Adobe Illustrator 20.1.0, SVG Export Plug-In  -->
<svg version="1.1" viewBox="0 0 1096.4 292.4">
<g>
	<polygon fill="#F68820" points="1052.6,177.8 45.9,177.8 5.2,61.2 1090,61.2 	"/>
	<path fill="#535253" d="M384.5,36.4v256l163-27.6l164.7,27.6v-256c0,0-45.3-36.4-163.9-36.4C429.7,0,384.5,36.4,384.5,36.4z"/>
	<text transform="matrix(1 0 0 1 466.1047 207.6222)" fill="#F68820" font-family="'Oswald-Medium'" font-size="29.8738px">Schedule a call</text>
	<g>
		<text transform="matrix(1 0 0 1 730.1835 130.4191)"><tspan x="0" y="0" fill="#FFFFFF" font-family="'Muli'" font-size="15.3862px">Not sure what your place will cost?</tspan><tspan x="0" y="18.5" fill="#FFFFFF" font-family="'Muli'" font-size="15.3862px">Use our guide to get a great idea.</tspan></text>
	</g>
	<g>
		<text transform="matrix(1 0 0 1 730.1835 107.3878)" fill="#FFFFFF" font-family="'Oswald-Medium'" font-size="18px">pricing calculator</text>
	</g>
	<g>
		<text transform="matrix(1 0 0 1 110.5969 130.4191)"><tspan x="0" y="0" fill="#FFFFFF" font-family="'Muli-SemiBold'" font-size="15.3862px">Existing customers book your next</tspan><tspan x="12.1" y="18.5" fill="#FFFFFF" font-family="'Muli-SemiBold'" font-size="15.3862px">cleaning </tspan><tspan x="79.1" y="18.5" fill="#FFFFFF" font-family="'Muli-SemiBold'" font-size="15.3862px" text-decoration=" underline"><a fill="#FFFFFF" href="/contact/">RIGHT HERE</a></tspan><tspan x="170.8" y="18.5" fill="#FFFFFF" font-family="'Muli-SemiBold'" font-size="15.3862px">, right now.</tspan></text>
	</g>
	<g>
		<text transform="matrix(1 0 0 1 168.276 107.3878)" fill="#FFFFFF" font-family="'Oswald-Medium'" font-size="18px">quick &amp; easy scheduling!</text>
	</g>
	<g>
		<circle fill="#6B6B6B" cx="1051.1" cy="120.8" r="45.3"/>
		<g id="_x3C_Group_x3E__1_">
			<path fill="#FFFFFF" d="M1070.7,92.2c4.4,0,8,3.8,8,8.5v41.9c0,4.7-3.6,8.5-8,8.5h-37.2c-4.4,0-8-3.8-8-8.5v-41.9
				c0-4.7,3.6-8.5,8-8.5H1070.7 M1070.7,96.5h-37.2c-2.2,0-4,1.9-4,4.3v41.9c0,2.4,1.8,4.3,4,4.3h37.2c2.2,0,4-1.9,4-4.3v-41.9
				C1074.7,98.4,1072.9,96.5,1070.7,96.5L1070.7,96.5z M1035.6,99.5c-1.9,0-3,1-3,2.6v10.2c0,1,0.5,2.1,2.4,2.1h34.5
				c1.9,0,2.1-1.2,2.1-1.9v-10.2c0-1.5-0.6-2.8-2.5-2.8H1035.6z M1035.6,116.4c-1.1,0-2.4-0.1-2.4,2.2v7.9c0,1.8,0.5,2.7,2.1,2.7
				h12.5c2.3,0,2.1-1.5,2.1-2.4v-8c0-1.9-0.6-2.4-2-2.4H1035.6z M1057.9,116.6c-1.1,0-2.4,0.2-2.4,2.1v21.9c0,2.5,0.5,2.7,2.1,2.7
				h13.1c1.2,0,1.5,0.1,1.5-1.8v-22c0-2.4-0.6-2.9-2-2.9H1057.9z M1035.4,131c-1.1,0-2.4-0.1-2.4,2.2v7.9c0,1.8,0.5,2.7,2.1,2.7
				h12.5c2.3,0,2.1-1.5,2.1-2.4v-8c0-1.9-0.6-2.4-2-2.4H1035.4z M1059.1,104.4v3.7c0,0.8,0,1.5-0.1,1.8c-0.1,0.4-0.3,0.7-0.6,1.1
				c-0.3,0.3-0.6,0.6-1.1,0.7c-0.4,0.1-0.9,0.2-1.4,0.2c-0.7,0-1.2-0.1-1.7-0.2c-0.4-0.2-0.8-0.4-1.1-0.7c-0.3-0.3-0.4-0.7-0.6-1
				c-0.1-0.4-0.2-0.9-0.2-1.7v-3.9c0-1,0.1-1.8,0.3-2.3c0.2-0.5,0.5-0.9,1.1-1.2c0.5-0.3,1.2-0.5,1.9-0.5c0.6,0,1.2,0.1,1.6,0.3
				c0.5,0.2,0.8,0.5,1.1,0.8c0.2,0.3,0.4,0.7,0.5,1C1059,102.9,1059.1,103.5,1059.1,104.4z M1057.6,103.3c0-0.6-0.1-1-0.3-1.2
				c-0.2-0.2-0.7-0.2-1.5-0.2c-0.8,0-1.3,0.1-1.5,0.3c-0.2,0.2-0.4,0.6-0.4,1.2v5.9c0,0.7,0.1,1.1,0.3,1.3c0.2,0.2,0.7,0.2,1.5,0.2
				c0.8,0,1.3-0.1,1.5-0.3c0.2-0.2,0.3-0.6,0.3-1.1V103.3z M1068.7,104.4v3.7c0,0.8,0,1.5-0.1,1.8c-0.1,0.4-0.3,0.7-0.6,1.1
				c-0.3,0.3-0.6,0.6-1,0.7c-0.4,0.1-0.9,0.2-1.4,0.2c-0.7,0-1.2-0.1-1.7-0.2c-0.4-0.2-0.8-0.4-1.1-0.7c-0.3-0.3-0.4-0.7-0.6-1
				c-0.1-0.4-0.2-0.9-0.2-1.7v-3.9c0-1,0.1-1.8,0.3-2.3c0.2-0.5,0.5-0.9,1-1.2c0.5-0.3,1.2-0.5,1.9-0.5c0.6,0,1.2,0.1,1.6,0.3
				c0.5,0.2,0.8,0.5,1.1,0.8c0.2,0.3,0.4,0.7,0.5,1C1068.6,102.9,1068.7,103.5,1068.7,104.4z M1067.2,103.3c0-0.6-0.1-1-0.3-1.2
				c-0.2-0.2-0.7-0.2-1.5-0.2c-0.8,0-1.3,0.1-1.5,0.3c-0.2,0.2-0.4,0.6-0.4,1.2v5.9c0,0.7,0.1,1.1,0.3,1.3c0.2,0.2,0.7,0.2,1.5,0.2
				c0.8,0,1.3-0.1,1.5-0.3c0.2-0.2,0.4-0.6,0.4-1.1V103.3z M1046.6,124.1h-3.4v3.5h-3v-3.5h-3.4v-3h3.4v-3.4h3v3.4h3.4V124.1z
				 M1045.9,140.3h-10v-3.8h10V140.3z M1069.3,128.2h-10v-3.8h10V128.2z M1069.3,134.5h-10v-3.8h10V134.5z"/>
		</g>
	</g>
	<g>
		<circle fill="#6B6B6B" cx="45.3" cy="120.8" r="45.3"/>
		<g>
			<rect x="37.3" y="115.5" fill="#FFFFFF" width="6.4" height="5.6"/>
			<rect x="26.8" y="115.5" fill="#FFFFFF" width="6.4" height="5.6"/>
			<rect x="47.1" y="115.5" fill="#FFFFFF" width="6.4" height="5.6"/>
			<rect x="57.2" y="115.5" fill="#FFFFFF" width="6.4" height="5.6"/>
			<rect x="37.3" y="124.3" fill="#FFFFFF" width="6.4" height="5.6"/>
			<rect x="47.1" y="124.3" fill="#FFFFFF" width="6.4" height="5.6"/>
			<rect x="57.2" y="124.3" fill="#FFFFFF" width="6.4" height="5.6"/>
			<rect x="37.3" y="133.6" fill="#FFFFFF" width="6.4" height="5.6"/>
			<rect x="27.1" y="124.3" fill="#FFFFFF" width="6.4" height="5.6"/>
			<rect x="27.1" y="133.6" fill="#FFFFFF" width="6.4" height="5.6"/>
			<rect x="47.1" y="133.6" fill="#FFFFFF" width="6.4" height="5.6"/>
			<rect x="57.2" y="133.6" fill="#FFFFFF" width="6.4" height="5.6"/>
			<path fill="#FFFFFF" d="M73.7,97.3l-8,0v5.1H58v-5.1l-24.3,0v5.2h-7.6v-5.2l-9.1,0v50.8H21h48.6l4,0L73.7,97.3z M69.7,144.1H21
				v-32.4h48.6V144.1z"/>
			<rect x="27.6" y="93.4" fill="#FFFFFF" width="4.8" height="7.9"/>
			<rect x="59.4" y="93.4" fill="#FFFFFF" width="4.8" height="7.9"/>
		</g>
	</g>
	<path fill="none" stroke="#F68820" stroke-width="2.9895" stroke-miterlimit="10" d="M548.2,10c-87,0-152.9,33.7-152.9,33.7v234.7
		l151.9-24.2l154.1,24.2V41.5C701.3,41.5,635.2,10,548.2,10z"/>
	<g>
		<path fill="#FFFFFF" d="M448.7,212.5h-22.1v-33.1h22.1v6.7l2.6,0v-9.1c0-1.9-1.6-3.5-3.5-3.5h-20.3c-1.9,0-3.5,1.6-3.5,3.5v41.2
			c0,1.9,1.6,3.5,3.5,3.5h20.3c1.9,0,3.5-1.6,3.5-3.5v-10.2l-2.6,0V212.5z M445.5,175.6c0.5,0,0.9,0.4,0.9,0.9
			c0,0.5-0.4,0.9-0.9,0.9c-0.5,0-0.9-0.4-0.9-0.9C444.6,176,445,175.6,445.5,175.6z M433,175.9h9.4v1H433V175.9z M442,217.9h-8.6
			v-2.6h8.6V217.9z"/>
		<g>
			<path fill="#FFFFFF" d="M447.9,198.7c0.8,0.2,1.6-0.3,1.9-1.1l4-8.1l-6.5,6c0,0-0.6,0.5-0.7,1.1
				C446.4,197.6,447,198.5,447.9,198.7z"/>
			<path fill="#FFFFFF" d="M453.4,188.9c-1.3-0.9-2.9-1.6-4.6-1.8v1.7c1.2,0.2,2.4,0.6,3.4,1.2L453.4,188.9z"/>
			<path fill="#FFFFFF" d="M454.4,189.7l-0.8,1.6c1.4,1.5,2.3,3.5,2.3,5.7c0,4.5-3.7,8.2-8.2,8.2c-4.5,0-8.2-3.7-8.2-8.2
				c0-4.3,3.3-7.8,7.5-8.2v-1.7c-5.1,0.4-9.1,4.6-9.1,9.8c0,5.5,4.4,9.9,9.9,9.9c5.5,0,9.9-4.4,9.9-9.9
				C457.6,194.1,456.3,191.5,454.4,189.7z"/>
		</g>
	</g>
	<g>
		<g>
			<path fill="#FFFFFF" d="M444.4,88.6c-0.8-0.9-1.6-1.8-2.3-2.6c2.6-1.3,4.9-2.6,6.7-4.1c1.8-1.4,3.3-2.9,4.4-4.3
				c0.4-0.1,0.7-0.2,1.1-0.3c2.3-0.1,4.5-0.1,6.8-0.1c0.1,13.2,0.3,26.4,0.4,39.6c-3.5,0-6.9,0-10.4,0c-0.1-10.3-0.1-20.6-0.2-30.9
				C448.6,86.8,446.5,87.7,444.4,88.6z"/>
			<path fill="#FFFFFF" d="M468.3,106.7c3.5-0.2,7-0.4,10.5-0.6c0,0.8,0,1.7,0,2.5c0,1.8,1.4,2.7,4.2,2.6c0.4,0,0.8,0,1.2,0
				c3.1-0.1,4.7-1.1,4.7-2.9c0-3.7-0.1-7.3-0.1-11c0-2.1-1.5-3-4.4-2.7c-5.3,0.5-10.6,1.1-15.8,1.8c-0.1-7.6-0.2-15.3-0.3-22.9
				c9.8-2.6,19.6-4.7,29.6-6.3c0,2.1,0,4.1,0.1,6.2c-6.6,0.9-13.2,2.1-19.8,3.4c0.1,4.3,0.1,8.6,0.2,12.9c2.8-0.4,5.5-0.7,8.3-1.1
				c8.4-1,12.6,1.6,12.7,7.5c0,4,0.1,8,0.1,12.1c0.1,5.9-4.1,8.9-12.5,8.9c-2,0-3.9,0-5.9,0c-8.4,0-12.6-2.5-12.7-7.4
				C468.4,108.5,468.3,107.6,468.3,106.7z"/>
			<path fill="#FFFFFF" d="M513.6,89.9c-0.9,0.1-1.8,0.1-2.7,0.2c-4.4,0.3-6.7-1.1-6.7-4.2c-0.1-4.8-0.1-9.6-0.2-14.4
				c0-3.1,2.2-4.9,6.6-5.5c0.9-0.1,1.8-0.2,2.7-0.3c4.5-0.5,6.7,0.9,6.7,4.1c0,5,0.1,10,0.1,15C520.2,87.9,518,89.6,513.6,89.9z
				 M512.6,69.2c-0.4,0-0.8,0.1-1.3,0.1c-1.2,0.1-1.9,0.8-1.8,2c0,4.6,0.1,9.1,0.1,13.7c0,1.2,0.6,1.7,1.9,1.6
				c0.4,0,0.8-0.1,1.3-0.1c1.3-0.1,1.9-0.7,1.9-1.9c0-4.6-0.1-9.2-0.1-13.9C514.6,69.6,513.9,69.1,512.6,69.2z M539.1,63.9
				c-6.4,15.8-12.8,31.6-19.1,47c-1.7,0-3.4,0-5.1,0.1c6.3-15.2,12.6-31,19-46.9C535.7,64,537.4,63.9,539.1,63.9z M543.1,110.7
				c-0.9,0-1.8,0-2.7,0c-4.4,0-6.6-1.6-6.7-4.9c0-5.1,0-10.1-0.1-15.2c0-3.2,2.2-4.9,6.7-5c0.9,0,1.8,0,2.7,0c4.5,0,6.7,1.6,6.7,4.9
				c0,5.1,0,10.2,0,15.3C549.7,109.1,547.5,110.7,543.1,110.7z M542.3,89.2c-0.4,0-0.8,0-1.3,0c-1.2,0-1.9,0.6-1.9,1.9
				c0,4.8,0,9.5,0,14.3c0,1.2,0.6,1.8,1.9,1.8c0.4,0,0.8,0,1.3,0c1.3,0,1.9-0.6,1.9-1.8c0-4.8,0-9.5,0-14.3
				C544.3,89.8,543.6,89.2,542.3,89.2z"/>
			<path fill="#FFFFFF" d="M568.3,116.8c-8.5,0-12.7-3-12.7-9.1c0-11.8,0.1-23.6,0.1-35.4c0-6.1,4.3-9.2,12.8-8.6
				c3.4,0.2,6.8,0.5,10.2,0.8c8.5,0.9,12.7,4.5,12.6,10.2c-0.1,11.2-0.2,22.3-0.4,33.5c-0.1,5.7-4.3,8.6-12.8,8.6
				C574.9,116.8,571.6,116.8,568.3,116.8z M570.9,110.4c1.8,0,3.6,0,5.4,0.1c2.8,0,4.2-1,4.2-3c0.1-11.1,0.2-22.3,0.3-33.4
				c0-2-1.6-3.2-4.7-3.5c-1.7-0.1-3.3-0.3-5-0.4c-3.1-0.2-4.7,0.8-4.7,2.8c-0.1,11.4-0.1,22.8-0.2,34.2
				C566.2,109.3,567.7,110.4,570.9,110.4z"/>
			<path fill="#FFFFFF" d="M622,91c0,1.8,0,3.6-0.1,5.4c-4.6-0.5-9.2-1-13.8-1.4c-0.1,7.3-0.2,14.5-0.3,21.8c-3.5,0-7,0-10.5,0
				c0.2-16.6,0.4-33.2,0.6-49.9c8.7,1.4,17.4,3.2,26,5.4c0,1.8,0,3.6-0.1,5.4c-5.1-1.1-10.3-2.1-15.5-3c-0.1,4.9-0.1,9.7-0.2,14.6
				C612.8,89.8,617.4,90.3,622,91z"/>
			<path fill="#FFFFFF" d="M652.1,96.1c0,1.5,0,2.9,0,4.4c-4.5-0.7-9.1-1.4-13.6-2c-0.1,6.1-0.1,12.2-0.2,18.4c-3.5,0-7,0-10.5,0
				c0.2-14.5,0.3-28.9,0.5-43.4c8.6,2.3,17.1,4.9,25.5,8c0,1.4,0,2.9,0,4.3c-5-1.6-10.1-3.1-15.2-4.4c0,4.1-0.1,8.2-0.1,12.3
				C643,94.4,647.6,95.2,652.1,96.1z"/>
		</g>
		<g>
			<path fill="#FFFFFF" d="M454.6,56.8c0-3,0-6.1,0-9.1c2-0.6,4.1-1.3,6.1-1.9c0,6.3,0,12.6,0,18.9c-2.1,0.6-4.1,1.2-6.1,1.9
				c0-1.3,0-2.5,0-3.8c-2.2-2.2-4.4-4.4-6.6-6.5c0,4.1,0,8.3,0,12.4c-2,0.7-4.1,1.4-6.1,2.1c0-6.3,0-12.6,0-18.9
				c2-0.7,4-1.4,6.1-2.1C450.2,52.1,452.4,54.4,454.6,56.8z"/>
			<path fill="#FFFFFF" d="M464.9,63.5c0-6.3,0-12.6,0-18.9c5.1-1.4,10.2-2.7,15.4-3.8c0,0.8,0,1.5,0,2.3c-3.1,0.7-6.1,1.4-9.2,2.2
				c0,1.9,0,3.8,0,5.7c2.7-0.7,5.4-1.3,8.2-2c0,0.8,0,1.5,0,2.3c-2.7,0.6-5.4,1.3-8.2,2c0,2.1,0,4.2,0,6.3c3.1-0.8,6.1-1.5,9.2-2.2
				c0,0.8,0,1.5,0,2.3C475.2,60.8,470,62.1,464.9,63.5z"/>
			<path fill="#FFFFFF" d="M516.1,35c-2.3,6.6-4.7,13.1-7,19.7c-2.3,0.3-4.6,0.6-6.8,0.9c-1.3-3.5-2.6-6.9-3.9-10.4
				c-1.3,3.9-2.5,7.7-3.8,11.6c-2.3,0.4-4.5,0.8-6.8,1.3c-2.3-5.9-4.6-11.7-6.9-17.5c2.1-0.5,4.1-0.9,6.2-1.3
				c1.5,4.4,3,8.9,4.4,13.3c1.5-5,3-10,4.4-15c1.6-0.3,3.3-0.5,4.9-0.8c1.5,4.5,3,9,4.5,13.5c1.5-4.9,3-9.9,4.5-14.8
				C511.9,35.4,514,35.2,516.1,35z"/>
			<path fill="#FFFFFF" d="M546,47.8c0,0.4,0,0.8,0,1.2c0,2.2-2.5,3.2-7.6,3.4c-1.4,0-2.7,0.1-4.1,0.2c-5.1,0.2-7.6-0.6-7.6-2.8
				c0-4.2,0-8.3,0-12.5c0-2.1,2.5-3.4,7.6-3.6c1.4-0.1,2.7-0.1,4.1-0.2c5.1-0.2,7.6,0.9,7.6,3.1c0,0.7,0,1.4,0,2.1
				c-2.1,0-4.2,0.1-6.4,0.1c0-0.7,0-1.3,0-2c0-0.7-0.9-1.1-2.8-1c-0.4,0-0.8,0-1.3,0c-1.7,0.1-2.5,0.5-2.5,1.2c0,4,0,8.1,0,12.1
				c0,0.7,0.8,1.1,2.5,1c0.5,0,1.1,0,1.6-0.1c1.7-0.1,2.5-0.4,2.5-1.2c0-0.3,0-0.7,0-1C541.7,47.9,543.8,47.8,546,47.8z"/>
			<path fill="#FFFFFF" d="M564.3,52.6c-5-0.3-10.1-0.4-15.1-0.4c0-6.3,0-12.6,0-18.9c2.1,0,4.2,0,6.4,0.1c0,5.5,0,11.1,0,16.6
				c2.9,0.1,5.8,0.2,8.7,0.3C564.3,51.1,564.3,51.9,564.3,52.6z"/>
			<path fill="#FFFFFF" d="M566.3,52.8c0-6.3,0-12.6,0-18.9c2.1,0.1,4.2,0.3,6.3,0.4c0,6.3,0,12.6,0,18.9
				C570.6,53,568.4,52.9,566.3,52.8z"/>
			<path fill="#FFFFFF" d="M577,53.5c0-6.3,0-12.6,0-18.9c5.2,0.5,10.5,1.1,15.7,1.8c0,0.8,0,1.5,0,2.3c-3.1-0.4-6.2-0.8-9.3-1.2
				c0,1.9,0,3.8,0,5.7c2.8,0.3,5.5,0.7,8.3,1c0,0.8,0,1.5,0,2.3c-2.8-0.4-5.5-0.7-8.3-1c0,2.1,0,4.2,0,6.3c3.1,0.4,6.2,0.7,9.3,1.2
				c0,0.8,0,1.5,0,2.3C587.4,54.6,582.2,54,577,53.5z"/>
			<path fill="#FFFFFF" d="M608.5,48.3c0-3,0-6.1,0-9.1c2.1,0.4,4.2,0.8,6.3,1.3c0,6.3,0,12.6,0,18.9c-2.1-0.5-4.2-0.9-6.3-1.3
				c0-1.3,0-2.5,0-3.8c-2.2-3.3-4.5-6.6-6.7-9.9c0,4.1,0,8.3,0,12.4c-2.1-0.4-4.2-0.7-6.3-1c0-6.3,0-12.6,0-18.9
				c2.1,0.3,4.2,0.7,6.3,1C604.1,41.3,606.3,44.8,608.5,48.3z"/>
			<path fill="#FFFFFF" d="M628.9,46.1c0,5.5,0,11.1,0,16.6c-2.1-0.5-4.1-1.1-6.2-1.6c0-5.5,0-11.1,0-16.6c-2-0.5-4-0.9-6-1.4
				c0-0.8,0-1.5,0-2.3c6.1,1.4,12.1,2.9,18.1,4.6c0,0.8,0,1.5,0,2.3C632.9,47.2,630.9,46.7,628.9,46.1z"/>
			<path fill="#FFFFFF" d="M648.5,54.8c0-0.6,0-1.1,0-1.7c0-0.8-0.9-1.4-2.7-2c-0.3-0.1-0.6-0.2-1-0.3c-1.7-0.6-2.6-0.5-2.6,0.3
				c0,1,0,2.1,0,3.1c0,0.4,0.2,0.6,0.5,0.9c0.3,0.2,0.9,0.6,1.7,1c1.9,1.1,3.9,2.1,5.8,3.2c1.3,0.7,2.2,1.3,2.7,1.6
				c0.5,0.4,0.9,0.7,1.2,1c0.3,0.3,0.4,0.8,0.4,1.5c0,1.3,0,2.7,0,4c0,2.1-2.4,2.3-7.4,0.6c-1.3-0.4-2.5-0.8-3.8-1.2
				c-4.9-1.5-7.4-3.4-7.4-5.7c0-0.3,0-0.6,0-0.9c2.1,0.6,4.1,1.2,6.1,1.9c0,0.3,0,0.7,0,1c0,0.7,0.9,1.4,2.7,2
				c0.4,0.1,0.7,0.2,1.1,0.4c1.6,0.5,2.4,0.4,2.4-0.3c0-1.1,0-2.1,0-3.2c0-0.4-0.2-0.6-0.5-0.9c-0.3-0.2-0.9-0.6-1.7-1
				c-1.9-1.1-3.9-2.1-5.8-3.2c-1.3-0.7-2.2-1.2-2.8-1.6c-0.6-0.4-1-0.7-1.3-1.1c-0.3-0.4-0.4-0.8-0.4-1.3c0-1.3,0-2.6,0-3.9
				c0-2.2,2.5-2.5,7.4-1c1.3,0.4,2.5,0.8,3.8,1.2c4.9,1.6,7.3,3.6,7.3,5.8c0,0.6,0,1.2,0,1.8C652.6,56.2,650.5,55.5,648.5,54.8z"/>
		</g>
	</g>
	<text transform="matrix(1 0 0 1 409.8004 240.4376)" fill="#FFFFFF" font-family="'Muli-SemiBold'" font-size="15.3862px">Just 15 minutes to discuss the details</text>
	<text transform="matrix(1 0 0 1 444.9038 140.2277)"><tspan x="0" y="0" fill="#FFFFFF" font-family="'Muli-SemiBold'" font-size="15.3862px">When you purchase 4 hours</tspan><tspan x="15.2" y="18.5" fill="#FFFFFF" font-family="'Muli-SemiBold'" font-size="15.3862px">or more of our services!</tspan></text>
</g>
</svg>