<!-- Generator: Adobe Illustrator 20.1.0, SVG Export Plug-In  -->
<svg version="1.1" viewBox="0 0 283 160.2">

<polygon opacity="0.15" fill="#535253" points="22.4,9.2 29.8,19.9 35.3,9.7 39.4,2.9 43.9,4.6 50.6,2.6 52.4,1 54.6,1 60.7,2.5
	65.6,0.1 78.7,0 88.4,1.1 102.5,3.4 109.8,4.9 118.9,9.4 283,160.2 147.9,159.5 35.5,159.5 0.4,111.3 0,109.9 0,101.6 4.5,101
	0,94.1 0,44.7 10,40.6 15.4,43.3 26.4,34.6 20.1,30.6 20.9,28 "/>
<g>
	<g>
		<path fill="#FFFFFF" d="M0.1,45c2.6-1.3,5.1-2.5,7.8-3.7c3.5-1.5,5.3,0.9,5.3,7.3c0.1,5.5,0.1,10.9,0.2,16.4
			c0.1,6.3-1.7,9.7-5.2,10.2c-1.2,0.2-2.4,0.4-3.7,0.6c0,6.2,0.1,12.4,0.1,18.6c-1.5,0-3,0-4.5,0C0.1,78,0.1,61.5,0.1,45z M4.5,69.5
			c0.9-0.2,1.9-0.4,2.8-0.6C8.4,68.7,9,67.5,9,65.5c0-5-0.1-9.9-0.1-14.9c0-2.1-0.7-2.9-2-2.4c-0.8,0.3-1.7,0.7-2.5,1
			C4.4,56,4.5,62.8,4.5,69.5z"/>
		<path fill="#FFFFFF" d="M16,94.4c-0.2-18.7-0.4-37.4-0.6-56.2c3.6-1.4,7.3-2.6,10.9-3.7c0,2.4,0.1,4.8,0.1,7.2
			c-2.2,0.6-4.4,1.2-6.6,1.8c0.1,5.8,0.1,11.7,0.2,17.5c1.9-0.4,3.9-0.7,5.8-1.1c0,2.4,0.1,4.8,0.1,7.2c-2,0.3-3.9,0.6-5.8,0.9
			c0.1,6.4,0.2,12.8,0.2,19.2c2.2-0.1,4.4-0.2,6.6-0.3c0,2.4,0.1,4.8,0.1,7.2C23.4,94.4,19.7,94.4,16,94.4z"/>
		<path fill="#FFFFFF" d="M28.4,34c2.9-0.8,5.9-1.5,8.8-2.2c3.5-0.8,5.2,2.6,5.3,9.9c0.1,5.2,0.1,10.5,0.2,15.7
			c0.1,5.6-0.8,9.2-2.6,10.8c1.1,8.7,2.3,17.4,3.4,26.3c-1.4,0-2.8,0-4.2,0c-1.1-8.5-2.2-16.8-3.2-25.1c-0.9,0.1-1.8,0.2-2.7,0.3
			c0.1,8.3,0.2,16.6,0.3,24.9c-1.5,0-3,0-4.5,0C28.9,74.3,28.7,54.1,28.4,34z M33.3,62.5c1-0.1,2-0.2,2.9-0.4c1.3-0.2,2-1.7,2-4.8
			c-0.1-4.5-0.1-9-0.2-13.5c0-3-0.7-4.4-2.1-4.2c-1,0.2-2,0.4-3,0.6C33.1,47.7,33.2,55.1,33.3,62.5z"/>
		<path fill="#FFFFFF" d="M55.7,56.8c0,2.6,0,5.3,0,7.9c-2,0.1-4,0.2-5.9,0.3c0.1,9.8,0.2,19.6,0.2,29.4c-1.5,0-3,0-4.5,0
			c-0.2-21.4-0.4-42.7-0.6-64.1c3.8-0.6,7.5-1.1,11.3-1.4c0,2.6,0,5.3,0,7.9c-2.3,0.2-4.5,0.4-6.8,0.6c0.1,6.6,0.1,13.1,0.2,19.7
			C51.8,57,53.8,56.9,55.7,56.8z"/>
		<path fill="#FFFFFF" d="M58.6,94.4c-0.1-21.9-0.2-43.8-0.3-65.6c3.8-0.3,7.6-0.4,11.4-0.4c0,2.7,0,5.3,0,8c-2.3,0-4.5,0-6.8,0.1
			c0,6.7,0,13.3,0.1,20c2,0,4-0.1,6-0.1c0,2.7,0,5.3,0,8c-2,0-4,0-5.9,0.1c0,7.3,0,14.6,0.1,21.9c2.2,0,4.4,0,6.6,0c0,2.7,0,5.3,0,8
			C66,94.4,62.3,94.4,58.6,94.4z"/>
		<path fill="#FFFFFF" d="M85.2,79.2c0,1.4,0,2.8,0,4.2c0,7.4-1.9,11.1-5.4,11.1c-1,0-1.9,0-2.9,0c-3.6,0-5.3-3.7-5.3-11.2
			c0-14.5,0-29.1,0-43.6c0-7.5,1.8-11.2,5.5-11.1c1,0,2,0.1,3,0.2c3.7,0.3,5.5,4.2,5.4,11.6c0,2.5,0,4.9,0,7.4
			c-1.5-0.1-3-0.2-4.6-0.3c0-2.3,0-4.5,0-6.8c0-2.6-0.7-3.9-2-4c-0.3,0-0.6,0-0.9,0c-1.2-0.1-1.8,1.2-1.8,3.8
			c0,14.1-0.1,28.2-0.1,42.2c0,2.6,0.6,3.9,1.8,3.9c0.4,0,0.7,0,1.1,0c1.2,0,1.8-1.3,1.8-3.8c0-1.2,0-2.4,0-3.6
			C82.2,79.1,83.7,79.1,85.2,79.2z"/>
		<path fill="#FFFFFF" d="M95.1,38.3c-0.2,18.7-0.4,37.4-0.6,56.2c-1.5,0-3,0-4.5,0c0.2-18.9,0.3-37.9,0.5-56.8
			c-1.5-0.2-2.9-0.3-4.4-0.5c0-2.6,0-5.3,0.1-7.9c4.5,0.5,8.9,1.2,13.3,2c0,2.6-0.1,5.1-0.1,7.7C98,38.7,96.5,38.5,95.1,38.3z"/>
		<path fill="#FFFFFF" d="M100.2,94.4c0.2-20.9,0.5-41.9,0.7-62.8c1.5,0.3,3,0.7,4.5,1c-0.3,20.6-0.5,41.2-0.8,61.8
			C103.2,94.4,101.7,94.4,100.2,94.4z"/>
		<path fill="#FFFFFF" d="M112.9,94.4c-3.6,0-5.4-3.4-5.3-10.4c0.2-13.4,0.3-26.8,0.5-40.3c0.1-7,1.9-10,5.5-9
			c1.4,0.4,2.8,0.9,4.2,1.3c3.5,1.2,5.2,5.1,5.2,11.5c-0.1,12.4-0.3,24.8-0.4,37.1c-0.1,6.4-1.9,9.6-5.5,9.6
			C115.7,94.4,114.3,94.4,112.9,94.4z M114,87.2c0.8,0,1.5,0.1,2.3,0.1c1.2,0,1.8-1.1,1.8-3.3c0.2-12.4,0.3-24.8,0.5-37.1
			c0-2.3-0.6-3.6-1.9-4c-0.7-0.2-1.4-0.4-2.1-0.6c-1.3-0.4-2,0.6-2,3c-0.2,12.8-0.3,25.6-0.5,38.3C112,86,112.7,87.2,114,87.2z"/>
		<path fill="#FFFFFF" d="M134.6,67.8c0-8.3,0.1-16.6,0.1-24.9c1.4,0.7,2.8,1.4,4.2,2.1c0,16.5,0,32.9,0,49.4c-1.5,0-3,0-4.5,0
			c0-3.4,0-6.8,0-10.2c-1.5-8-3.1-16.2-4.6-24.8c-0.1,11.7-0.2,23.4-0.3,35.1c-1.5,0-3,0-4.5,0c0.2-18.4,0.4-36.9,0.6-55.3
			c1.5,0.6,2.9,1.2,4.3,1.8C131.6,50.2,133.1,59.2,134.6,67.8z"/>
	</g>
	<g>
		<path fill="#FFFFFF" d="M4.8,109.5v0.7c0,1.3-0.6,2-1.9,2H2c-1.2,0-1.9-0.7-1.9-2v-7.7c0-1.3,0.6-2,1.9-2h1c1.2,0,1.9,0.7,1.9,2
			v1.3H3.3v-1.2c0-0.4-0.2-0.7-0.7-0.7H2.3c-0.4,0-0.6,0.2-0.6,0.7v7.5c0,0.5,0.2,0.7,0.6,0.7h0.4c0.4,0,0.6-0.2,0.6-0.7v-0.6H4.8z"
			/>
		<path fill="#FFFFFF" d="M13,112.2H9.3v-11.6h1.6v10.2H13V112.2z"/>
		<path fill="#FFFFFF" d="M17.1,112.2v-11.6H21v1.4h-2.3v3.5h2v1.4h-2v3.9H21v1.4H17.1z"/>
		<path fill="#FFFFFF" d="M26.8,112.2h-1.6v-9.6c0-1.3,0.6-2,1.9-2h1.2c1.2,0,1.9,0.7,1.9,2v9.6h-1.6v-4.3h-1.8V112.2z M28.6,106.5
			v-3.9c0-0.4-0.2-0.7-0.7-0.7h-0.4c-0.5,0-0.7,0.2-0.7,0.7v3.9H28.6z"/>
		<path fill="#FFFFFF" d="M38,106.2v-5.6h1.6v11.6H38v-2.3l-1.7-5.3v7.6h-1.6v-11.6h1.6L38,106.2z"/>
		<path fill="#FFFFFF" d="M44.2,112.2v-11.6h1.6v11.6H44.2z"/>
		<path fill="#FFFFFF" d="M53.7,106.2v-5.6h1.6v11.6h-1.6v-2.3l-1.7-5.3v7.6h-1.6v-11.6H52L53.7,106.2z"/>
		<path fill="#FFFFFF" d="M62.3,107.9v-1.4h2.4v5.7h-3c-1.2,0-1.8-0.7-1.8-2v-7.7c0-1.3,0.6-2,1.8-2h1.1c1.3,0,2,0.7,2,2v1.3h-1.6
			v-1c0-0.6-0.2-0.8-0.7-0.8h-0.4c-0.5,0-0.7,0.3-0.7,0.8v7.1c0,0.6,0.2,0.8,0.7,0.8h1.1v-2.8H62.3z"/>
		<path fill="#FFFFFF" d="M78,103.7v-1c0-0.5-0.2-0.7-0.7-0.7h-0.2c-0.4,0-0.7,0.2-0.7,0.7v1.9c0,0.2,0,0.4,0.1,0.4
			c0.1,0.1,0.2,0.2,0.4,0.3l1.5,0.8c0.3,0.2,0.6,0.3,0.7,0.4c0.1,0.1,0.2,0.2,0.3,0.4c0.1,0.1,0.1,0.4,0.1,0.8v2.5
			c0,1.3-0.6,2-1.9,2h-1c-1.2,0-1.9-0.7-1.9-2.1v-0.6h1.6v0.6c0,0.5,0.2,0.7,0.7,0.7h0.3c0.4,0,0.6-0.2,0.6-0.7v-2
			c0-0.2,0-0.4-0.1-0.4c-0.1-0.1-0.2-0.2-0.4-0.3l-1.5-0.8c-0.3-0.2-0.6-0.3-0.7-0.4c-0.1-0.1-0.2-0.3-0.3-0.5
			c-0.1-0.2-0.1-0.4-0.1-0.7v-2.4c0-1.3,0.6-2,1.9-2h1c1.2,0,1.9,0.7,1.9,2v1.1H78z"/>
		<path fill="#FFFFFF" d="M84.1,112.2v-11.6H88v1.4h-2.3v3.5h2v1.4h-2v3.9H88v1.4H84.1z"/>
		<path fill="#FFFFFF" d="M92.3,100.6h3c1.2,0,1.8,0.7,1.8,2v2.9c0,1-0.3,1.7-0.9,1.9l1.1,4.8h-1.5l-1-4.7h-0.9v4.7h-1.6V100.6z
			 M93.9,106.2h1c0.5,0,0.7-0.3,0.7-0.8v-2.5c0-0.6-0.2-0.8-0.7-0.8h-1V106.2z"/>
		<path fill="#FFFFFF" d="M106.7,100.6l-1.9,11.6H103l-1.9-11.6h1.5l1.3,8.9l1.3-8.9H106.7z"/>
		<path fill="#FFFFFF" d="M110.8,112.2v-11.6h1.6v11.6H110.8z"/>
		<path fill="#FFFFFF" d="M121.7,109.5v0.7c0,1.3-0.6,2-1.9,2h-1c-1.2,0-1.9-0.7-1.9-2v-7.7c0-1.3,0.6-2,1.9-2h1
			c1.2,0,1.9,0.7,1.9,2v1.3h-1.6v-1.2c0-0.4-0.2-0.7-0.7-0.7h-0.3c-0.4,0-0.6,0.2-0.6,0.7v7.5c0,0.5,0.2,0.7,0.6,0.7h0.4
			c0.4,0,0.6-0.2,0.6-0.7v-0.6H121.7z"/>
		<path fill="#FFFFFF" d="M126.2,112.2v-11.6h3.9v1.4h-2.3v3.5h2v1.4h-2v3.9h2.3v1.4H126.2z"/>
		<path fill="#FFFFFF" d="M137.4,103.7v-1c0-0.5-0.2-0.7-0.7-0.7h-0.2c-0.4,0-0.7,0.2-0.7,0.7v1.9c0,0.2,0,0.4,0.1,0.4
			c0.1,0.1,0.2,0.2,0.4,0.3l1.5,0.8c0.3,0.2,0.6,0.3,0.7,0.4c0.1,0.1,0.2,0.2,0.3,0.4c0.1,0.1,0.1,0.4,0.1,0.8v2.5
			c0,1.3-0.6,2-1.9,2h-1c-1.2,0-1.9-0.7-1.9-2.1v-0.6h1.6v0.6c0,0.5,0.2,0.7,0.7,0.7h0.3c0.4,0,0.6-0.2,0.6-0.7v-2
			c0-0.2,0-0.4-0.1-0.4c-0.1-0.1-0.2-0.2-0.4-0.3l-1.5-0.8c-0.3-0.2-0.6-0.3-0.7-0.4c-0.1-0.1-0.2-0.3-0.3-0.5
			c-0.1-0.2-0.1-0.4-0.1-0.7v-2.4c0-1.3,0.6-2,1.9-2h1c1.2,0,1.9,0.7,1.9,2v1.1H137.4z"/>
	</g>
	<g>
		<path fill="#FFFFFF" d="M29.8,18.7c1.5-4.9,2.9-9.8,4.4-14.6c1.8-0.4,3.5-0.8,5.3-1.1c0,7.7,0,15.4,0,23.1c-1.6,0.3-3.2,0.6-4.8,1
			c0.2-5.1,0.3-10.1,0.5-15.2c-1.2,3.9-2.4,7.8-3.6,11.8c-1.2,0.3-2.4,0.6-3.7,0.9c-1.2-3.3-2.4-6.6-3.5-9.9c0.2,5,0.3,10,0.5,15
			c-1.6,0.5-3.1,0.9-4.7,1.4c0-7.7,0-15.4,0-23.1c1.7-0.6,3.5-1.1,5.2-1.6C26.9,10.4,28.4,14.5,29.8,18.7z"/>
		<path fill="#FFFFFF" d="M47.3,24.7c-1.6,0.2-3.2,0.5-4.8,0.8c0-6.4,0-12.7,0-19.1c0-2.6,1.9-4.3,5.8-4.8c1.2-0.2,2.4-0.3,3.6-0.5
			c3.9-0.4,5.8,0.8,5.8,3.4c0,6.4,0,12.7,0,19.1c-1.6,0.1-3.2,0.3-4.8,0.4c0-2.8,0-5.6,0-8.4c-1.9,0.2-3.7,0.4-5.5,0.7
			C47.3,19,47.3,21.9,47.3,24.7z M52.9,12.8c0-2.6,0-5.1,0-7.7c0-0.9-0.7-1.3-2.1-1.1c-0.4,0.1-0.9,0.1-1.3,0.2
			c-1.4,0.2-2.1,0.7-2.1,1.6c0,2.6,0,5.1,0,7.7C49.2,13.2,51,12.9,52.9,12.8z"/>
		<path fill="#FFFFFF" d="M60.7,23.3c0-7.7,0-15.4,0-23.1c1.6-0.1,3.2-0.2,4.9-0.2c0,7.7,0,15.4,0,23.1C64,23.2,62.4,23.3,60.7,23.3
			z"/>
		<path fill="#FFFFFF" d="M68.9,23.1c0-7.7,0-15.4,0-23.1c2.8,0,5.6,0,8.5,0.2c4.6,0.2,6.8,1.9,6.8,4.9c0,5.1,0,10.2,0,15.3
			c0,2.2-1.9,3.1-5.8,2.9C75.2,23.1,72,23.1,68.9,23.1z M73.7,20.3c1.2,0,2.4,0.1,3.6,0.1c1.3,0.1,1.9-0.2,1.9-0.9
			c0-4.9,0-9.8,0-14.8c0-1.1-0.7-1.7-2.2-1.8c-1.1-0.1-2.3-0.1-3.4-0.1C73.7,8.7,73.7,14.5,73.7,20.3z"/>
		<path fill="#FFFFFF" d="M97.9,5.3c0,6.8,0,13.5,0,20.3c-1.6-0.3-3.2-0.5-4.8-0.8c0-6.8,0-13.5,0-20.3c-1.5-0.2-3.1-0.4-4.6-0.6
			c0-0.9,0-1.9,0-2.8c4.7,0.5,9.4,1.3,14,2.3c0,0.9,0,1.9,0,2.8C100.9,5.8,99.4,5.5,97.9,5.3z"/>
		<path fill="#FFFFFF" d="M109.5,28c-3.8-1-5.8-2.6-5.8-5.3c0-5.1,0-10.1,0-15.2c0-2.6,1.9-3.6,5.7-2.6c1.5,0.4,3,0.8,4.5,1.2
			c3.8,1.1,5.6,3,5.6,5.7c0,5.1,0,10.1,0,15.2c0,2.6-1.9,3.3-5.7,2.2C112.4,28.8,111,28.4,109.5,28z M110.6,25.5
			c0.8,0.2,1.6,0.4,2.4,0.7c1.2,0.3,1.9,0.1,1.9-0.8c0-4.9,0-9.9,0-14.8c0-0.9-0.7-1.6-2.1-2c-0.7-0.2-1.5-0.4-2.2-0.6
			c-1.4-0.4-2.1-0.1-2.1,0.8c0,4.9,0,9.9,0,14.8C108.5,24.5,109.2,25.2,110.6,25.5z"/>
	</g>
	<path fill="#FFFFFF" d="M139,16.4c-7,0-8.9,1.9-8.9,8.9c0-7-1.9-8.9-8.9-8.9c7,0,8.9-1.9,8.9-8.9C130.1,14.5,132,16.4,139,16.4z"/>
	<path fill="#FFFFFF" d="M161.5,21.4c-8.3,0-13.3,5.1-13.3,13.3c0-8.3-5.1-13.3-13.3-13.3c8.3,0,13.3-5.1,13.3-13.3
		C148.2,16.3,153.3,21.4,161.5,21.4z"/>
	<path fill="#FFFFFF" d="M145.8,36.4c-2.1,0-4.6,2.5-4.6,4.6c0-2.1-2.5-4.6-4.6-4.6c2.1,0,4.6-2.5,4.6-4.6
		C141.3,33.9,143.7,36.4,145.8,36.4z"/>
</g>
</svg>