<!-- Generator: Adobe Illustrator 20.1.0, SVG Export Plug-In  -->
<svg version="1.1" viewBox="0 0 90.7 90.7">
<g>
	<circle fill="#FFFFFF" cx="45.3" cy="45.3" r="45.3"/>
	<g>
		<path fill="#F68820" d="M71.9,37.5l-6,40.4c0,0-2,2.4-5,2.4c-3,0-30.9,0-30.9,0s-3.8,0.3-4.4-2.6c-0.6-2.9-2-9.5-2-9.5l10.6,0.1
			c0,0,7.9,0.3,17.1-7.9c7.7-6.8,8.5-9.1,8.5-9.1s2.8,0.3,3.9-1.6c1.1-2,0.8-4.7-1.4-5.8c-2.2-1.1-5.3-0.1-5.8,1.3
			c-0.5,1.4-1.2,3.3,0.3,4.5c0,0-9.6,14.7-19.7,15.5c-10.1,0.7-14,0.4-14,0.4l-5.6-28.1H71.9z"/>
		<path fill="#F68820" d="M17.7,35.7h54.2c0,0-5.8-8-18.1-5.8c0,0-3.1-7.2-11.7-7c-8.6,0.2-10.8,7.2-10.8,7.2S23.3,26.6,17.7,35.7z"
			/>
		<ellipse fill="#F68820" cx="55.9" cy="21.6" rx="3.4" ry="3.7"/>
		<ellipse fill="#F68820" cx="38.1" cy="17.9" rx="2.4" ry="2.6"/>
		<ellipse fill="#F68820" cx="42" cy="13.6" rx="1.1" ry="1.2"/>
		<ellipse fill="#F68820" cx="27.7" cy="23.2" rx="1.6" ry="1.7"/>
		<ellipse fill="#F68820" cx="66.3" cy="24.8" rx="4.8" ry="4.5"/>
	</g>
</g>
</svg>