<!-- Generator: Adobe Illustrator 20.1.0, SVG Export Plug-In  -->
<svg version="1.1"
	 xmlns="http://www.w3.org/2000/svg" xmlns:xlink="http://www.w3.org/1999/xlink" xmlns:a="http://ns.adobe.com/AdobeSVGViewerExtensions/3.0/"
	 x="0px" y="0px" width="54.2px" height="68px" viewBox="0 0 54.2 68" enable-background="new 0 0 54.2 68" xml:space="preserve">
<g>
	<path d="M54.2,25.2l-6,40.4c0,0-2,2.4-5,2.4c-3,0-30.9,0-30.9,0S8.6,68.3,8,65.4c-0.6-2.9-2-9.5-2-9.5L16.6,56
		c0,0,7.9,0.3,17.1-7.9c7.7-6.8,8.5-9.1,8.5-9.1s2.8,0.3,3.9-1.6c1.1-2,0.8-4.7-1.4-5.8c-2.2-1.1-5.3-0.1-5.8,1.3
		c-0.5,1.4-1.2,3.3,0.3,4.5c0,0-9.6,14.7-19.7,15.5c-10.1,0.7-14,0.4-14,0.4L0,25.2H54.2z"/>
	<path d="M0,23.3h54.2c0,0-5.8-8-18.1-5.8c0,0-3.1-7.2-11.7-7c-8.6,0.2-10.8,7.2-10.8,7.2S5.6,14.3,0,23.3z"/>
	<ellipse  cx="38.2" cy="9.2" rx="3.4" ry="3.7"/>
	<ellipse  cx="20.4" cy="5.5" rx="2.4" ry="2.6"/>
	<ellipse  cx="24.4" cy="1.2" rx="1.1" ry="1.2"/>
	<ellipse  cx="10" cy="10.8" rx="1.6" ry="1.7"/>
	<ellipse  cx="48.6" cy="12.4" rx="4.8" ry="4.5"/>
</g>
</svg>