<!-- Generator: Adobe Illustrator 20.1.0, SVG Export Plug-In  -->
<svg version="1.1"
	 xmlns="http://www.w3.org/2000/svg" xmlns:xlink="http://www.w3.org/1999/xlink" xmlns:a="http://ns.adobe.com/AdobeSVGViewerExtensions/3.0/"
	 x="0px" y="0px" width="67.4px" height="104.6px" viewBox="0 0 67.4 104.6" enable-background="new 0 0 67.4 104.6"
	 xml:space="preserve">
<g>
	<path fill="#F68820" d="M18.5,73.9l9.5-2.5l-2.3-5.8l-4-1.7L3.3,1.5c0,0-0.4-1.5-1.7-1.5C0.3,0.1-0.3,1.3,0.2,2.4
		c0.5,1.2,18.5,61.7,18.5,61.7L17,67.6L18.5,73.9z"/>
	<path fill="#F68820" d="M19.6,74.3c0,0-2.5,4.7-2.5,6.5c0,1.8-0.8,3.9,7.5,7C37.3,91.9,45,91,44.8,93.9c-0.4,3.3,0,7-7.8,6
		c-1.9-0.4-6.9-2.1-9-2.5c-7.5-1.5-12.7-1.5-15.5-0.3c-3.6,1.5-1.7,2.1,0,1.7c1.7-0.4,6.1-1.1,9.3-0.5c3.2,0.6,8.5,1.9,10.7,2.3
		c2.2,0.3,10.6,1.8,13-0.8c2.4-2.6,3.7-4.7,2.6-6.6c-1.1-1.9-3.5-3.6-9-4.9c-5.6-1.3-13.5-1.1-17-4.2C18.6,80.9,17.7,79.2,19.6,74.3
		z"/>
	<path fill="#F68820" d="M20.7,74.3c0,0-2.7,8.6,5.7,10.6c2,0.4,3.7,0.8,5.7,1.2c8,1.4,16.2,2.6,16.9,6c0.8,4.3-0.9,11.3-9.4,10.2
		c-8.6-1.1-14.5-3.5-21.4-2.6c-6.9,0.8-8,1.9-7.7,3c0.3,1.1,1.5,1.2,3.4,0.2c1.9-1,6.4-1.8,9.5-0.8c3.1,1,17.2,4.2,21.7,1.9
		s7.3-5.8,7-8.6c-0.3-2.8,0.7-8.1-17.4-10.7C18.1,82.1,20.7,74.3,20.7,74.3z"/>
	<path fill="#F68820" d="M22.6,73.6c0,0-1.6,6.8,6.8,8.5c8.4,1.7,18.2,2.7,20.8,6c2.6,3.2,3.3,7.6,1.7,12.1c0,0,4.9-4.1,3.3-8.3
		c-1.6-4.3-3.1-6.7-8.4-8.1c-5.3-1.4-15.7-2.4-18.1-3.6C26.5,79.1,22.9,75.4,22.6,73.6z"/>
	<path fill="#F68820" d="M23.9,73.1c0,0,1.1,6,8.2,7c7.1,1,14.5,1.7,18.9,4.3c4.5,2.6,9.6,6.4,3.7,15.1c0,0,6.6-3.2,4.5-10.1
		c-2.2-6.9-10.2-8.3-13.7-8.7C42,80.4,31.2,80.1,28,77.1C24.7,74.1,23.9,73.1,23.9,73.1z"/>
	<path fill="#F68820" d="M25.7,73.6c0,0,2.2,4.2,7.6,4.7c7.1,0.7,16.6,0.9,20.2,3.2c3.6,2.3,6.9,4.5,7.3,7.4
		c0.4,2.9,1.2,6.1-2.8,9.5c0,0,6.1-2.5,5.7-7.3c-0.4-4.8-3.4-8.3-6.4-9.8c-3-1.5-8.7-2.7-15.2-3.2C42.2,78.2,28.4,77.6,25.7,73.6z"
		/>
	<path fill="#F68820" d="M26.4,72.5c0,0-0.3,2.8,9,3.9c9.2,1.1,21.4,2.1,24.2,4.3c2.8,2.3,8.6,7.8,4.5,15.2c0,0,4.6-5.3,2.9-9.6
		c-1.7-4.3-4.9-8.1-13.9-9c-9-0.9-16.3-1.5-18.5-1.9C32.2,75.1,28.8,74.9,26.4,72.5z"/>
	<path fill="#F68820" d="M38.4,99c0,0-10.7-2.6-12.6-3.1c-1.9-0.4-9.1-0.9-12-0.5c-2.9,0.4-2.4-0.2-2.2-1c0.2-0.8,2.2-1.3,4.3-1.3
		c2.1,0,10.6,2.3,11.9,2.8C29,96.4,38.4,99,38.4,99z"/>
	<path fill="#F68820" d="M40.9,98.2c0.2,0-7.9-1.3-10.9-2.6c-3-1.3-7.1-3.6-10.6-3.6s-6.3,0.8-6.9,0C12,91.3,13,90.4,14,90.1
		c1.1-0.3,4.8-0.8,6.8,0c2,0.8,4.3,2,6.2,2.8C28.8,93.8,33.3,97,40.9,98.2z"/>
</g>
</svg>
