<svg version="1.1" viewBox="0 0 47.1 56.1">
<g>
	<path fill="#F68820" d="M28.7,45.4H3.1V6.9h25.6v7.8l3.1,0V4.1c0-2.3-1.8-4.1-4.1-4.1H4.1C1.8,0,0,1.8,0,4.1V52
		c0,2.2,1.8,4.1,4.1,4.1h23.6c2.3,0,4.1-1.8,4.1-4.1V40.1l-3.1,0V45.4z M25,2.6c0.6,0,1,0.5,1,1c0,0.6-0.5,1-1,1c-0.6,0-1-0.5-1-1
		C23.9,3,24.4,2.6,25,2.6z M10.4,3h10.9v1.2H10.4V3z M20.9,51.7h-10v-3.1h10V51.7z"/>
	<g>
		<path fill="#F68820" d="M35.9,29.4c1,0.2,1.9-0.3,2.2-1.2l4.6-9.4l-7.5,7c0,0-0.7,0.6-0.9,1.3C34.1,28.1,34.8,29.1,35.9,29.4z"/>
		<path fill="#F68820" d="M42.3,18c-1.5-1.1-3.4-1.8-5.4-2v1.9c1.4,0.2,2.8,0.7,3.9,1.4L42.3,18z"/>
		<path fill="#F68820" d="M43.4,18.9l-0.9,1.8c1.6,1.7,2.7,4,2.7,6.6c0,5.3-4.3,9.6-9.6,9.6c-5.3,0-9.6-4.3-9.6-9.6
			c0-5,3.8-9.1,8.7-9.5v-1.9c-5.9,0.4-10.6,5.4-10.6,11.4c0,6.3,5.1,11.5,11.5,11.5c6.3,0,11.5-5.1,11.5-11.5
			C47.1,24,45.7,21,43.4,18.9z"/>
	</g>
	<text transform="matrix(1 0 0 1 11.0647 35.8382)" fill="#F68820" font-family="'Oswald-Medium'" font-size="24.0864px">?</text>
</g>
</svg>