<!-- Generator: Adobe Illustrator 20.1.0, SVG Export Plug-In  -->
<svg version="1.1"
	 xmlns="http://www.w3.org/2000/svg" xmlns:xlink="http://www.w3.org/1999/xlink" xmlns:a="http://ns.adobe.com/AdobeSVGViewerExtensions/3.0/"
	 x="0px" y="0px" width="43.1px" height="66.6px" viewBox="0 0 43.1 66.6" enable-background="new 0 0 43.1 66.6"
	 xml:space="preserve">
<g>
	<g>
		<g>
			<path d="M24.2,34.4v-6.5l-4.6-5.5H9.3l-2.9,2.7c0,0-1.1,15.6-0.8,23.3c0.3,7.7-0.8,16.9,8.8,17.8
				c9.6,0.8,14.8,0,14.8,0s5.9,0.5,5.9-6.4c0-6.8,0-16.1,0-16.1L24.2,34.4z M18.1,50.7c-1.5-1.3-4.7-9.8-5.5-12.2
				c-0.8-2.4-0.7-14.2-0.7-14.2h2.4c0,0,0.5,12.1,1,13.7c0.5,1.7,4.9,11,4.9,12.6C20.3,52.3,19.6,52,18.1,50.7z"/>
		</g>
	</g>
	<path d="M8.1,21h11.3v-7.3l6-4V2H9.9c0,0-6.8,8.3-9.9,8.6c0,0,7.3,2.4,7.7,4.4L8.1,21z"/>
	<path d="M26,2v7.9l5-1c0,0-1.3-3.7,0-6.3L26,2z"/>
	<path d="M24.6,11.1l-4.3,2.7c0,0,1,5.4,9.1,4.9c0,0,0.5-1.4-0.9-1.4C27.1,17.2,23.8,13.6,24.6,11.1z"/>
	<path d="M41.8,0l-9.9,3c-0.2,0.1-0.3,0.3-0.2,0.4l0.1,0.2C31.8,3.9,32,4,32.2,3.9l9.9-3c0.2-0.1,0.3-0.3,0.2-0.4
		l-0.1-0.2C42.2,0.1,42,0,41.8,0z"/>
	<path d="M42,11.9l-9.9-3c-0.2-0.1-0.3-0.3-0.2-0.4L32,8.2C32,8,32.2,7.9,32.4,8l9.9,3c0.2,0.1,0.3,0.3,0.2,0.4
		l-0.1,0.2C42.4,11.8,42.2,11.9,42,11.9z"/>
	<path d="M42.7,6.6L32.4,6.2c-0.2,0-0.3-0.2-0.3-0.4l0-0.2c0-0.2,0.2-0.3,0.4-0.3l10.4,0.3c0.2,0,0.3,0.2,0.3,0.4
		l0,0.2C43.1,6.4,42.9,6.6,42.7,6.6z"/>
</g>
</svg>