<!-- Generator: Adobe Illustrator 20.1.0, SVG Export Plug-In  -->
<svg version="1.1"
	 xmlns="http://www.w3.org/2000/svg" xmlns:xlink="http://www.w3.org/1999/xlink" xmlns:a="http://ns.adobe.com/AdobeSVGViewerExtensions/3.0/"
	 x="0px" y="0px" width="184.4px" height="134.4px" viewBox="0 0 184.4 134.4" enable-background="new 0 0 184.4 134.4"
	 xml:space="preserve">
<g>
	<g>
		<path d="M146.1,15.1c-11.9,0-15.1,3.2-15.1,15.1c0-11.9-3.2-15.1-15.1-15.1c11.9,0,15.1-3.2,15.1-15.1
			C131,11.9,134.2,15.1,146.1,15.1z"/>
		<path d="M184.4,23.6c-14.1,0-22.7,8.6-22.7,22.7c0-14.1-8.6-22.7-22.7-22.7c14.1,0,22.7-8.6,22.7-22.7
			C161.7,15,170.3,23.6,184.4,23.6z"/>
		<path d="M157.7,49.1c-3.6,0-7.8,4.2-7.8,7.8c0-3.6-4.2-7.8-7.8-7.8c3.6,0,7.8-4.2,7.8-7.8
			C149.9,44.9,154.1,49.1,157.7,49.1z"/>
	</g>
	<g>
		<g>
			<g>
				<path d="M52.8,120.3h-4.4v2.2H7.3v-2.3H4.6c0,0-4.6-0.2-4.6,4.9c0,5.2,0,6.1,0,6.1s1.1,3.2,5.3,3.2
					c4.1,0,45.2,0,45.2,0s5.7-0.5,5.7-2.8c0-2.3,0-6.6,0-6.6S56.2,120.3,52.8,120.3z M46,116.5c0,0-0.3-3.6-4.5-3.6h-8.6v1.3H22.3
					v-1.7h-5.4c0,0-4.6-0.1-5.2,6.4H46V116.5z M123.4,92.8c-9.7,0-17.5,7.8-17.5,17.5c0,9.7,7.8,17.5,17.5,17.5
					c9.7,0,17.5-7.8,17.5-17.5C140.9,100.6,133,92.8,123.4,92.8z M123.8,119.5c-5,0-9.1-4.1-9.1-9.1c0-5.1,4.1-9.1,9.1-9.1
					c5.1,0,9.1,4.1,9.1,9.1C132.9,115.4,128.8,119.5,123.8,119.5z M104.2,104.4c5.2-17.7,23.2-13.4,23.2-13.4V52.5
					c0,0-4.2-15.5-18.1-12.1c-13.9,3.4-24.4,5.7-24.4,5.7s-11.2,3.1-13.4,12.3c0,0-3.4-0.7-5,0c-1.6,0.7-3.9,0.5-4.4,10.9
					c0,0-5.8-0.1-7.6-6.3c-1.8-6.2,1-22.5,2.2-28c1.2-5.6-1.2-21.7-15.4-21.7C27,13.3,23.7,26,23.7,32.9v78.8H32v-77
					c0,0,0.8-14.7,8.6-14.7c7.8,0,12,8.1,8.6,16.5c-3.4,8.4-3.4,20.2-2.6,23.8c0.8,3.6,2.1,13.3,12.9,16.7c0,0-3.7,8.9,4.2,11.2
					l-5.5,29.1c0,0-1.6,17.5,20.1,17.2c21.7-0.3,32.4,0,32.4,0s11.2,0.2,11.2-4C121.8,130.4,99.2,126.9,104.2,104.4z M120.1,50.1
					c2.5,0,4.4,2,4.4,4.4c0,2.5-2,4.4-4.4,4.4c-2.5,0-4.4-2-4.4-4.4C115.6,52.1,117.6,50.1,120.1,50.1z M76.4,61.7
					c0,0-11.2,50.4-11.9,57.9c-0.7,7.5,8.3,11.5,8.3,11.5c-6.6-1-11.3-7.6-11.7-11.7c-0.4-4,6.3-32.5,6.3-32.5l-2.9-1.2l5.8-25.2
					l3,0.4C82.1,47,94.1,50.5,94.1,50.5C84.6,50.3,76.4,61.7,76.4,61.7z M96.5,65c0-5.8,4.7-10.5,10.5-10.5
					c5.8,0,10.5,4.7,10.5,10.5s-4.7,10.5-10.5,10.5C101.2,75.5,96.5,70.8,96.5,65z"/>
			</g>
		</g>
	</g>
</g>
</svg>
