<!-- Generator: Adobe Illustrator 20.1.0, SVG Export Plug-In  -->
<svg version="1.1" viewBox="0 0 90.7 90.7">
<g>
	<circle fill="#FFFFFF" cx="45.3" cy="45.3" r="45.3"/>
	<g>
		<g>
			<g>
				<path fill="#F68820" d="M34.4,60.2c0,0-0.1-1.6-2-1.6h-3.7v0.6h-4.6v-0.7h-2.3c0,0-2,0-2.2,2.7h14.9V60.2z M59.6,55
					c2.3-7.7,10-5.8,10-5.8V32.5c0,0-1.8-6.7-7.8-5.2c-6,1.5-10.6,2.4-10.6,2.4s-4.8,1.3-5.8,5.3c0,0-1.5-0.3-2.2,0
					c-0.7,0.3-1.7,0.2-1.9,4.7c0,0-2.5-0.1-3.3-2.7c-0.8-2.7,0.4-9.7,0.9-12.1c0.5-2.4-0.5-9.4-6.7-9.4c-6.1,0-7.6,5.5-7.6,8.5v34.1
					h3.6V24.8c0,0,0.3-6.4,3.7-6.4c3.4,0,5.2,3.5,3.7,7.1c-1.5,3.6-1.5,8.7-1.1,10.3c0.3,1.5,0.9,5.7,5.6,7.2c0,0-1.6,3.8,1.8,4.8
					l-2.4,12.6c0,0-0.7,7.6,8.7,7.4c9.4-0.1,14,0,14,0s4.8,0.1,4.8-1.8C67.2,66.2,57.4,64.7,59.6,55z M47.5,36.5
					c0,0-4.8,21.8-5.1,25c-0.3,3.3,3.6,5,3.6,5c-2.8-0.4-4.9-3.3-5-5c-0.2-1.7,2.7-14.1,2.7-14.1l-1.3-0.5L44.9,36l1.3,0.2
					c3.8-6,9-4.5,9-4.5C51.1,31.6,47.5,36.5,47.5,36.5z M66.4,31.5c1.1,0,1.9,0.9,1.9,1.9s-0.9,1.9-1.9,1.9c-1.1,0-1.9-0.9-1.9-1.9
					S65.4,31.5,66.4,31.5z M56.2,37.9c0-2.5,2-4.5,4.5-4.5c2.5,0,4.5,2,4.5,4.5c0,2.5-2,4.5-4.5,4.5C58.3,42.5,56.2,40.4,56.2,37.9z
					 M37.3,61.8h-1.9v0.9H17.6v-1h-1.2c0,0-2-0.1-2,2.1c0,2.2,0,2.7,0,2.7S15,68,16.8,68c1.8,0,19.6,0,19.6,0s2.5-0.2,2.5-1.2
					c0-1,0-2.9,0-2.9S38.8,61.8,37.3,61.8z M67.9,50c-4.2,0-7.6,3.4-7.6,7.6c0,4.2,3.4,7.6,7.6,7.6c4.2,0,7.6-3.4,7.6-7.6
					C75.4,53.3,72,50,67.9,50z M68,61.5c-2.2,0-4-1.8-4-4c0-2.2,1.8-4,4-4c2.2,0,4,1.8,4,4C72,59.7,70.2,61.5,68,61.5z"/>
			</g>
		</g>
	</g>
</g>
</svg>
