<!-- Generator: Adobe Illustrator 20.1.0, SVG Export Plug-In  -->
<svg version="1.1"
	 xmlns="http://www.w3.org/2000/svg" xmlns:xlink="http://www.w3.org/1999/xlink" xmlns:a="http://ns.adobe.com/AdobeSVGViewerExtensions/3.0/"
	 x="0px" y="0px" width="60.9px" height="52.4px" viewBox="0 0 60.9 52.4" enable-background="new 0 0 60.9 52.4"
	 xml:space="preserve">
<g>
	<g>
		<g>
			<path d="M45.1,39.4c2.3-7.7,10-5.8,10-5.8V17c0,0-1.8-6.7-7.8-5.2c-6,1.5-10.6,2.4-10.6,2.4s-4.8,1.3-5.8,5.3
				c0,0-1.5-0.3-2.2,0c-0.7,0.3-1.7,0.2-1.9,4.7c0,0-2.5-0.1-3.3-2.7c-0.8-2.7,0.4-9.7,0.9-12.1C25,7,24,0,17.8,0s-7.6,5.5-7.6,8.5
				v34.1h3.6V9.3c0,0,0.3-6.4,3.7-6.4c3.4,0,5.2,3.5,3.7,7.1c-1.5,3.6-1.5,8.7-1.1,10.3c0.3,1.5,0.9,5.7,5.6,7.2
				c0,0-1.6,3.9,1.8,4.8L25.2,45c0,0-0.7,7.6,8.7,7.4c9.4-0.1,14,0,14,0s4.8,0.1,4.8-1.8C52.7,50.7,42.9,49.1,45.1,39.4z M33.1,20.9
				c0,0-4.8,21.8-5.1,25c-0.3,3.3,3.6,5,3.6,5c-2.8-0.4-4.9-3.3-5-5c-0.2-1.7,2.7-14.1,2.7-14.1l-1.3-0.5l2.5-10.9l1.3,0.2
				c3.8-6,9-4.5,9-4.5C36.6,16,33.1,20.9,33.1,20.9z M51.9,15.9c1.1,0,1.9,0.9,1.9,1.9s-0.9,1.9-1.9,1.9S50,18.9,50,17.9
				S50.9,15.9,51.9,15.9z M41.7,22.4c0-2.5,2-4.5,4.5-4.5c2.5,0,4.5,2,4.5,4.5c0,2.5-2,4.5-4.5,4.5C43.8,26.9,41.7,24.9,41.7,22.4z
				 M19.9,44.7c0,0-0.1-1.6-2-1.6h-3.7v0.6H9.6v-0.7H7.3c0,0-2,0-2.2,2.7h14.9V44.7z M22.8,46.3h-1.9v0.9H3.1v-1H2c0,0-2-0.1-2,2.1
				C0,50.6,0,51,0,51s0.5,1.4,2.3,1.4c1.8,0,19.6,0,19.6,0s2.5-0.2,2.5-1.2s0-2.9,0-2.9S24.3,46.3,22.8,46.3z M53.4,34.4
				c-4.2,0-7.6,3.4-7.6,7.6c0,4.2,3.4,7.6,7.6,7.6c4.2,0,7.6-3.4,7.6-7.6C60.9,37.8,57.5,34.4,53.4,34.4z M53.5,46c-2.2,0-4-1.8-4-4
				c0-2.2,1.8-4,4-4c2.2,0,4,1.8,4,4C57.5,44.2,55.7,46,53.5,46z"/>
		</g>
	</g>
</g>
</svg>